<?xml version="1.0" encoding="UTF-8" standalone="no"?>
<!-- Created with Inkscape (http://www.inkscape.org/) -->

<svg
   xmlns:dc="http://purl.org/dc/elements/1.1/"
   xmlns:cc="http://creativecommons.org/ns#"
   xmlns:rdf="http://www.w3.org/1999/02/22-rdf-syntax-ns#"
   xmlns:svg="http://www.w3.org/2000/svg"
   xmlns="http://www.w3.org/2000/svg"
   xmlns:sodipodi="http://sodipodi.sourceforge.net/DTD/sodipodi-0.dtd"
   xmlns:inkscape="http://www.inkscape.org/namespaces/inkscape"
   width="210mm"
   height="297mm"
   viewBox="0 0 210 297"
   version="1.1"
   id="svg8"
   inkscape:version="0.92.5 (2060ec1f9f, 2020-04-08)"
   sodipodi:docname="x.svg">
  <defs
     id="defs2" />
  <sodipodi:namedview
     id="base"
     pagecolor="#ffffff"
     bordercolor="#666666"
     borderopacity="1.0"
     inkscape:pageopacity="0.0"
     inkscape:pageshadow="2"
     inkscape:zoom="1"
     inkscape:cx="375.50459"
     inkscape:cy="795.77079"
     inkscape:document-units="mm"
     inkscape:current-layer="layer1"
     showgrid="false"
     inkscape:window-width="1920"
     inkscape:window-height="1017"
     inkscape:window-x="-8"
     inkscape:window-y="-8"
     inkscape:window-maximized="1"
     inkscape:snap-global="false" />
  <metadata
     id="metadata5">
    <rdf:RDF>
      <cc:Work
         rdf:about="">
        <dc:format>image/svg+xml</dc:format>
        <dc:type
           rdf:resource="http://purl.org/dc/dcmitype/StillImage" />
        <dc:title></dc:title>
      </cc:Work>
    </rdf:RDF>
  </metadata>
  <g
     inkscape:label="Layer 1"
     inkscape:groupmode="layer"
     id="layer1">
    <path
       style="opacity:1;vector-effect:none;fill:#ff0000;fill-opacity:1;fill-rule:nonzero;stroke:none;stroke-width:1;stroke-linecap:round;stroke-linejoin:round;stroke-miterlimit:4;stroke-dasharray:none;stroke-dashoffset:0;stroke-opacity:1;paint-order:markers fill stroke"
       id="path823"
       d="m 36.219066,37.300013 c 0.687917,0.211175 1.302155,0.582121 1.913157,0.952035 0.773084,0.512902 1.511094,1.075007 2.232988,1.656958 0.598731,0.50781 1.211355,0.999305 1.801654,1.516944 0.257082,0.232375 0.138798,0.124714 0.355177,0.322632 0.758208,0.683088 -0.315164,1.874499 -1.073373,1.191409 v 0 c -0.206129,-0.188685 -0.09443,-0.08691 -0.335348,-0.305062 -0.575252,-0.506606 -1.175518,-0.984068 -1.75903,-1.481082 -0.675883,-0.54501 -1.366567,-1.071743 -2.089676,-1.553155 -0.511472,-0.308948 -1.023062,-0.626054 -1.601251,-0.796425 -0.957302,-0.353644 -0.4016,-1.857901 0.555702,-1.504254 z"
       inkscape:connector-curvature="0"
       inkscape:export-filename="../Assets/Debug/x.png"
       inkscape:export-xdpi="96"
       inkscape:export-ydpi="96" />
    <path
       style="opacity:1;vector-effect:none;fill:#ff0000;fill-opacity:1;fill-rule:nonzero;stroke:none;stroke-width:1;stroke-linecap:round;stroke-linejoin:round;stroke-miterlimit:4;stroke-dasharray:none;stroke-dashoffset:0;stroke-opacity:1;paint-order:markers fill stroke"
       id="path825"
       d="m 42.088768,37.082663 c -0.405302,0.533657 -0.793353,1.078326 -1.165273,1.635755 -0.462772,0.675116 -0.880073,1.379217 -1.305933,2.077707 -0.379013,0.63315 -0.7528,1.269206 -1.137832,1.898734 -0.206497,0.340805 -0.104932,0.172377 -0.304753,0.505257 -0.297632,0.976169 -1.831536,0.508487 -1.533903,-0.467683 v 0 c 0.199818,-0.314894 0.09694,-0.145637 0.306009,-0.509357 0.393049,-0.622898 0.765445,-1.257488 1.136327,-1.893816 0.438589,-0.705403 0.846445,-1.430214 1.317731,-2.114847 0.373086,-0.575857 0.750305,-1.149731 1.182074,-1.683922 0.351401,-0.958127 1.856954,-0.405955 1.505553,0.552172 z"
       inkscape:connector-curvature="0"
       inkscape:export-filename="../Assets/Debug/x.png"
       inkscape:export-xdpi="96"
       inkscape:export-ydpi="96" />
    <path
       style="opacity:1;vector-effect:none;fill:#ff0000;fill-opacity:1;fill-rule:nonzero;stroke:none;stroke-width:1;stroke-linecap:round;stroke-linejoin:round;stroke-miterlimit:4;stroke-dasharray:none;stroke-dashoffset:0;stroke-opacity:1;paint-order:markers fill stroke"
       id="path835"
       d="m 59.463423,38.197102 c -0.434819,-0.145318 -0.880316,-0.137092 -1.330478,-0.105318 -0.40558,0.03791 -0.718624,0.190529 -1.026411,0.443402 0.07324,-0.09225 -0.308129,0.334902 -0.216136,0.266806 0.07532,-0.05575 0.11539,-0.150585 0.190204,-0.207018 0.04537,-0.03422 -0.06882,0.0906 -0.09938,0.138509 -0.08304,0.130197 -0.101351,0.184947 -0.165243,0.326811 -0.144952,0.327848 -0.157363,0.670997 -0.103999,1.01968 0.06374,0.28982 0.241577,0.488421 0.483441,0.644809 0.249796,0.139115 0.538194,0.211343 0.823624,0.170606 0.27373,-0.02823 0.519237,-0.168572 0.754139,-0.305541 0.313447,-0.191884 0.553175,-0.451393 0.782106,-0.733417 -0.396084,0.493662 0.03264,-0.08677 0.08379,-0.21998 0.04996,-0.130128 0.04975,-0.164648 0.07197,-0.29527 0.01913,-0.330438 -0.135432,-0.610719 -0.346472,-0.85195 -0.255969,-0.250481 -0.593799,-0.360678 -0.930804,-0.453824 -0.151744,-0.02672 -0.297955,-0.02884 -0.449408,-0.0065 -1.015296,-0.103283 -0.853004,-1.698665 0.162293,-1.595385 v 0 c 0.290472,0.0065 0.576598,0.01868 0.857694,0.103195 0.576265,0.181438 1.125654,0.425929 1.547484,0.874538 0.437973,0.517991 0.74335,1.103429 0.757336,1.79728 -0.04588,0.796544 -0.332883,1.419617 -0.893712,2.00128 -0.35746,0.374578 -0.767072,0.697523 -1.231771,0.930203 -0.430834,0.1973 -0.874614,0.35778 -1.356889,0.347411 -0.560581,-0.02671 -1.098346,-0.146312 -1.572257,-0.464066 -0.510741,-0.37152 -0.902097,-0.83149 -1.069745,-1.454205 -0.120653,-0.579874 -0.147608,-1.174573 0.04495,-1.74438 0.251058,-0.715465 0.651026,-1.364361 1.302467,-1.786852 0.532858,-0.323808 1.106514,-0.512366 1.733302,-0.54428 0.59386,-0.02236 1.183756,0.01527 1.753605,0.199189 0.957302,0.353644 0.4016,1.857901 -0.555702,1.504254 z"
       inkscape:connector-curvature="0"
       inkscape:export-filename="../Assets/Debug\o.png"
       inkscape:export-xdpi="96"
       inkscape:export-ydpi="96" />
    <g
       id="g905"
       inkscape:export-filename="../Assets/Debug\plus.png"
       inkscape:export-xdpi="96"
       inkscape:export-ydpi="96">
      <path
         inkscape:connector-curvature="0"
         d="m 72.152901,36.681148 c 0,0.514014 0,1.028028 0,1.542042 0,0.556852 0,1.113702 0,1.670555 0.0016,0.372843 0.003,0.745241 -0.01217,1.117782 0.100163,1.015609 -1.495714,1.172999 -1.595874,0.15739 v 0 c 0.03989,-0.34036 0.02053,-0.682016 0.02416,-1.024313 0,-0.55685 0,-1.113702 0,-1.670552 0,-0.514014 0,-1.028028 0,-1.542042 -0.159647,-1.007973 1.424229,-1.258835 1.583875,-0.250862 z"
         id="path847"
         style="opacity:1;vector-effect:none;fill:#ff0000;fill-opacity:1;fill-rule:nonzero;stroke:none;stroke-width:1;stroke-linecap:round;stroke-linejoin:round;stroke-miterlimit:4;stroke-dasharray:none;stroke-dashoffset:0;stroke-opacity:1;paint-order:markers fill stroke" />
      <path
         inkscape:connector-curvature="0"
         d="m 69.0901,38.264975 c 0.527965,-0.07025 1.059085,-0.111516 1.590384,-0.146116 0.584666,0.0082 1.167738,0.05765 1.751433,0.08934 0.545555,0.03652 1.093552,0.02117 1.637186,0.08006 0.338304,0.04548 0.175982,0.02093 0.487143,0.07248 0.987737,0.256646 0.584457,1.808726 -0.403281,1.55208 v 0 c -0.259638,-0.03866 -0.123375,-0.02021 -0.408929,-0.05423 -0.52733,-0.04129 -1.057783,-0.03125 -1.585489,-0.07023 -0.529378,-0.03024 -1.05913,-0.07837 -1.589675,-0.06975 -0.499173,0.03587 -0.998225,0.07794 -1.4937,0.149934 -1.020492,-0.0095 -1.005565,-1.613045 0.01492,-1.603547 z"
         id="path849"
         style="opacity:1;vector-effect:none;fill:#ff0000;fill-opacity:1;fill-rule:nonzero;stroke:none;stroke-width:1;stroke-linecap:round;stroke-linejoin:round;stroke-miterlimit:4;stroke-dasharray:none;stroke-dashoffset:0;stroke-opacity:1;paint-order:markers fill stroke" />
    </g>
    <path
       style="opacity:1;vector-effect:none;fill:#ff0000;fill-opacity:1;fill-rule:nonzero;stroke:none;stroke-width:1;stroke-linecap:round;stroke-linejoin:round;stroke-miterlimit:4;stroke-dasharray:none;stroke-dashoffset:0;stroke-opacity:1;paint-order:markers fill stroke"
       id="path855"
       d="m 85.658321,35.592268 c 0.536149,-0.09497 1.076145,-0.08832 1.617726,-0.06961 0.544767,-0.02307 1.088493,-0.06502 1.632964,-0.09426 0.553209,-0.05998 1.066046,0.04407 1.514694,0.373036 0.346938,0.32679 0.453324,0.77597 0.534842,1.227148 0.07355,0.47385 0.09801,0.953347 0.119814,1.431796 0.02114,0.514175 0.02955,1.02875 0.03663,1.543272 0.03539,0.786598 -0.06638,1.087215 -0.536625,1.712354 -0.356814,0.29519 -0.787278,0.317352 -1.227937,0.323641 -0.430119,-1.3e-4 -0.860221,-0.0056 -1.290325,-0.0088 -0.496803,-0.0036 -0.993616,-0.0053 -1.490427,-0.0067 -0.55662,-0.0092 -1.035986,-0.15413 -1.465786,-0.507913 -0.321151,-0.335378 -0.506992,-0.771856 -0.685919,-1.194498 -0.182086,-0.454547 -0.263464,-0.93793 -0.328409,-1.420532 -0.061,-0.520253 -0.112453,-1.041424 -0.05584,-1.563532 0.09765,-0.61678 0.563078,-1.010107 1.054134,-1.333886 0.417902,-0.244824 0.885452,-0.377293 1.364329,-0.427141 0.680154,0.01656 0.654124,1.085326 -0.02604,1.068764 v 0 c -0.336079,0.05292 -0.665355,0.157458 -0.94701,0.353274 -0.07771,0.0587 -0.197069,0.146714 -0.268361,0.210076 -0.02734,0.02429 -0.0874,0.113859 -0.07609,0.07907 0.111278,-0.342146 0.110937,-0.129524 -0.03228,0.02127 -0.108291,0.431033 -0.006,0.879594 0.02003,1.316279 0.04867,0.407677 0.105305,0.817636 0.245412,1.205796 0.118846,0.300622 0.252878,0.604504 0.431681,0.873262 0.245679,0.235469 0.581147,0.244584 0.906645,0.259377 0.498218,0.0016 0.996437,0.0034 1.494644,0.0072 0.420685,0.0033 0.84142,0.0099 1.262111,0.0054 0.183882,-0.0069 0.405455,0.01241 0.527192,-0.153194 -0.04193,0.06608 -0.09048,0.128405 -0.125798,0.19825 -0.01619,0.03203 0.04814,-0.05362 0.06784,-0.08362 0.147204,-0.224179 0.136168,-0.498671 0.128752,-0.755761 -0.0062,-0.505923 -0.0136,-1.011886 -0.03195,-1.517544 -0.01781,-0.443471 -0.03737,-0.887619 -0.09421,-1.32815 -0.03494,-0.235297 -0.0649,-0.481476 -0.173839,-0.696204 -0.234956,-0.232217 -0.646359,-0.148069 -0.938052,-0.146275 -0.569155,0.03199 -1.137888,0.08132 -1.708149,0.0855 -0.491596,-0.01389 -0.980507,-0.006 -1.466358,0.08181 -0.680329,-0.0063 -0.670378,-1.075365 0.0099,-1.069031 z"
       inkscape:connector-curvature="0"
       inkscape:export-filename="../Assets/Debug\square.png"
       inkscape:export-xdpi="96"
       inkscape:export-ydpi="96" />
    <path
       style="opacity:1;vector-effect:none;fill:#ff0000;fill-opacity:1;fill-rule:nonzero;stroke:none;stroke-width:1;stroke-linecap:round;stroke-linejoin:round;stroke-miterlimit:4;stroke-dasharray:none;stroke-dashoffset:0;stroke-opacity:1;paint-order:markers fill stroke"
       id="path857"
       d="m 95.210579,41.2702 c 0.247808,-0.485648 0.428876,-0.997252 0.604684,-1.511858 0.184597,-0.541631 0.34287,-1.092214 0.499578,-1.642518 0.152334,-0.532273 0.329197,-1.056148 0.508545,-1.579665 0.174186,-0.452247 0.315563,-0.948656 0.725382,-1.255999 0.07814,-0.05861 0.186118,-0.05937 0.279177,-0.08906 0.499568,-0.0033 0.821047,0.306853 1.072462,0.703191 0.223875,0.385752 0.39092,0.802571 0.545738,1.219983 0.186502,0.480356 0.373594,0.960353 0.561575,1.440127 0.17583,0.496136 0.38581,0.979053 0.55417,1.477822 0.14536,0.419344 0.33133,0.823227 0.47917,1.241237 0.18142,0.638845 -0.10677,1.18708 -0.73695,1.423734 -0.43311,0.09809 -0.880592,0.09761 -1.322431,0.107317 -0.454821,-0.03703 -0.906713,-0.100605 -1.36136,-0.140705 -0.488188,-0.04727 -0.979826,-0.03783 -1.466649,-0.096 -0.256897,-0.02408 -0.504484,-0.105424 -0.76286,-0.104561 -0.670039,-0.118049 -0.484545,-1.170911 0.185494,-1.052865 v 0 c 0.270944,0.0258 0.53661,0.077 0.806323,0.113152 0.482055,0.04751 0.968335,0.0406 1.45038,0.09257 0.420671,0.0396 0.83942,0.100849 1.261221,0.125275 0.332134,-0.0091 0.676905,-2.64e-4 0.998462,-0.09214 -0.279936,0.345978 -0.009,0.235006 -0.0286,0.05826 -0.125013,-0.424482 -0.342781,-0.819783 -0.479287,-1.241497 -0.155104,-0.485542 -0.366567,-0.949333 -0.532128,-1.431232 -0.194193,-0.486486 -0.377954,-0.977 -0.57286,-1.463264 -0.129854,-0.369076 -0.276934,-0.735894 -0.465399,-1.078977 -0.107884,-0.217804 -0.324141,-0.26308 -0.04702,-0.241474 0.150355,-0.04626 0.108273,-0.01707 0.244674,-0.239853 0.01611,-0.02633 -0.05413,0.03348 -0.07127,0.05916 -0.117062,0.175348 -0.148619,0.399087 -0.254453,0.580404 -0.167222,0.512275 -0.355451,1.01637 -0.504655,1.534689 -0.154705,0.56997 -0.326261,1.13579 -0.504722,1.698593 -0.188479,0.529971 -0.339492,1.076894 -0.613585,1.572226 -0.118411,0.669972 -1.171172,0.483909 -1.052763,-0.186066 z"
       inkscape:connector-curvature="0"
       inkscape:export-filename="../Assets/Debug\triangle.png"
       inkscape:export-xdpi="96"
       inkscape:export-ydpi="96" />
    <g
       id="g911"
       inkscape:export-filename="../Assets/Debug\eyes.png"
       inkscape:export-xdpi="96"
       inkscape:export-ydpi="96">
      <path
         inkscape:connector-curvature="0"
         d="m 113.77936,34.660668 c -0.30675,-0.05349 -0.6122,-0.05557 -0.91416,0.02056 -0.29388,0.08888 -0.52526,0.256608 -0.74617,0.462536 -0.0983,0.101775 -0.2206,0.311804 -0.32795,0.589135 -0.10994,0.315317 -0.15543,0.646993 -0.19359,0.977183 -0.0284,0.309517 0.0231,0.614439 0.075,0.918133 0.0627,0.336508 0.17472,0.658701 0.30345,0.974675 0.12962,0.279897 0.27493,0.549693 0.4842,0.777787 0.19235,0.187511 0.42954,0.291735 0.69028,0.338397 0.23755,0.05251 0.44162,-0.02727 0.65564,-0.115808 0.24858,-0.127653 0.48389,-0.292491 0.66922,-0.50269 0.22887,-0.241477 0.17748,-0.160779 0.38532,-0.51363 0.14983,-0.272915 0.2187,-0.576509 0.2747,-0.87984 0.0545,-0.298238 0.0428,-0.604396 0.0109,-0.904507 -0.0412,-0.338402 -0.14742,-0.664033 -0.2651,-0.98248 -0.13543,-0.327681 -0.32536,-0.633048 -0.5615,-0.897332 -0.15307,-0.174067 -0.3172,-0.376624 -0.56035,-0.409969 -0.19353,-0.02347 -0.38966,0.02855 -0.55816,0.123333 -0.2034,0.101819 -0.39863,0.232145 -0.56711,0.385902 -0.0831,0.106805 -0.0816,0.09889 0.023,-0.0074 -0.17687,0.447394 -0.87988,0.169474 -0.70301,-0.277921 v 0 c 0.27588,-0.334423 0.14684,-0.208344 0.36333,-0.401143 0.22796,-0.169203 0.46229,-0.332933 0.72758,-0.439123 0.31286,-0.114007 0.63509,-0.178057 0.9659,-0.09659 0.35058,0.111821 0.63156,0.314844 0.86023,0.605713 0.28569,0.322012 0.52314,0.686261 0.69008,1.084154 0.1385,0.362416 0.26099,0.73437 0.316,1.119654 0.0491,0.357804 0.065,0.726537 0.0141,1.084852 -0.06,0.370197 -0.13628,0.740159 -0.2985,1.081207 -0.18942,0.369789 -0.43713,0.704545 -0.74698,0.984062 -0.27004,0.241152 -0.56704,0.455266 -0.9066,0.587854 -0.32815,0.11971 -0.6637,0.171405 -1.00993,0.09449 -0.38367,-0.08997 -0.73407,-0.256344 -1.0156,-0.539043 -0.25682,-0.283739 -0.45028,-0.606026 -0.60962,-0.953797 -0.14696,-0.357375 -0.27859,-0.719936 -0.35446,-1.100198 -0.0619,-0.360064 -0.12777,-0.719553 -0.10615,-1.087186 0.0387,-0.378193 0.0866,-0.757272 0.19762,-1.122246 0.15111,-0.453171 0.36497,-0.861076 0.74259,-1.173105 0.31171,-0.25469 0.65508,-0.449638 1.05131,-0.540453 0.37485,-0.06471 0.75011,-0.06704 1.12571,7.93e-4 0.46706,0.115298 0.28589,0.84922 -0.18118,0.73392 z"
         id="path883"
         style="opacity:1;vector-effect:none;fill:#ff0000;fill-opacity:1;fill-rule:nonzero;stroke:none;stroke-width:1;stroke-linecap:round;stroke-linejoin:round;stroke-miterlimit:4;stroke-dasharray:none;stroke-dashoffset:0;stroke-opacity:1;paint-order:markers fill stroke" />
      <path
         inkscape:connector-curvature="0"
         d="m 112.78161,35.596131 c -0.14928,0.316571 -0.21816,0.652873 -0.25806,0.997781 0.003,0.208944 -0.054,0.509545 0.11756,0.671809 0.0665,-0.0082 0.0967,-0.114681 0.12126,-0.169014 -0.0331,0.03307 -0.0577,0.07773 -0.0993,0.0992 -0.0261,0.01347 0.0345,-0.04762 0.0489,-0.07317 0.0719,-0.127418 0.10365,-0.26126 0.12181,-0.404577 0.0302,-0.210198 -0.0163,-0.395076 -0.11142,-0.579115 0.004,-0.05173 -0.20422,-0.220924 -0.11633,-0.08393 10e-4,-0.03461 -0.12396,0.118343 -0.11383,0.111398 0.19334,-0.132578 0.10754,-0.122701 0.0238,0.03066 -0.0732,0.159724 -0.10497,0.332417 -0.0326,0.496766 0.0108,0.07263 0.13503,0.07949 0.0646,0.01125 0.0167,-0.106892 0.10144,-0.09725 -0.0837,0.03098 -0.0212,0.01469 0.0329,-0.03986 0.0467,-0.06164 0.0417,-0.06583 0.0452,-0.08383 0.0712,-0.151686 0.0494,-0.178183 0.0448,-0.357454 -0.0227,-0.528915 -0.014,-0.05798 -0.22809,-0.290227 -0.27062,-0.193101 -0.0715,0.330724 0.19376,-0.257127 0.0257,0.11479 -0.0425,0.153011 -0.0549,0.321736 0.0143,0.468471 0.0975,0.09023 -0.0163,-0.02709 -0.0439,-0.06095 -0.002,-0.01196 0.005,-0.04319 -0.005,-0.03588 -0.2387,0.181919 -0.0306,0.118107 -0.012,-0.149691 -0.0213,-0.08628 0.068,0.06194 0.11541,0.08512 0.0436,0.02135 0.13238,0.0366 0.18914,0.04736 0.23602,-0.253359 0.15101,-0.200768 0.12176,-0.05798 0.0166,0.480801 -0.73894,0.506825 -0.7555,0.02604 v 0 c 0.0337,-0.283131 0.0734,-0.449046 0.31515,-0.653582 0.40205,-0.18624 0.6889,-2.6e-5 0.75817,0.419875 0.0202,0.404564 -0.12077,0.785583 -0.46661,1.028258 -0.35198,0.147135 -0.67227,0.06398 -0.87339,-0.273523 -0.13752,-0.290769 -0.17768,-0.594191 -0.11078,-0.911752 0.10833,-0.412588 0.38585,-0.773358 0.83826,-0.794289 0.37297,0.05425 0.65274,0.25651 0.83101,0.593645 0.12558,0.298921 0.17096,0.605412 0.10545,0.926992 -0.0917,0.386297 -0.30734,0.753393 -0.70678,0.883002 -0.35021,0.03941 -0.63272,-0.08363 -0.80972,-0.400606 -0.14562,-0.327147 -0.17439,-0.662009 -0.046,-1.002789 0.14369,-0.356262 0.38756,-0.66597 0.77902,-0.752306 0.36514,-0.02797 0.6263,0.124984 0.81254,0.440579 0.15293,0.287586 0.25237,0.583086 0.2218,0.914775 -0.0296,0.428631 -0.14669,0.790901 -0.46042,1.10262 -0.33517,0.250859 -0.70825,0.30299 -1.04568,0.01452 -0.26717,-0.330268 -0.33766,-0.705366 -0.31162,-1.125976 0.0391,-0.406226 0.10046,-0.806527 0.26769,-1.182995 0.0837,-0.473744 0.82814,-0.342177 0.74442,0.131567 z"
         id="path885"
         style="opacity:1;vector-effect:none;fill:#ff0000;fill-opacity:1;fill-rule:nonzero;stroke:none;stroke-width:1;stroke-linecap:round;stroke-linejoin:round;stroke-miterlimit:4;stroke-dasharray:none;stroke-dashoffset:0;stroke-opacity:1;paint-order:markers fill stroke" />
      <path
         inkscape:connector-curvature="0"
         d="m 120.35356,34.257451 c -0.32188,-0.09475 -0.6498,-0.144352 -0.9849,-0.123897 -0.30561,0.0021 -0.54638,0.145349 -0.77945,0.326483 -0.26188,0.212868 -0.3476,0.346776 -0.51588,0.6003 -0.21862,0.335684 -0.34538,0.711247 -0.44453,1.095978 -0.10391,0.404095 -0.10018,0.822772 -0.0691,1.235604 0.0427,0.347644 0.13429,0.686459 0.28238,1.003617 0.12154,0.272998 0.29458,0.521343 0.5124,0.725835 0.19144,0.151741 0.41325,0.25183 0.65919,0.243157 0.29315,-0.04437 0.53652,-0.208119 0.7535,-0.400823 0.047,-0.03811 0.0956,-0.07428 0.14092,-0.114329 0.12326,-0.108894 0.23339,-0.230854 0.33756,-0.357576 0.12285,-0.149445 0.15624,-0.177573 0.0819,-0.109019 0.20611,-0.309713 0.34924,-0.657998 0.47306,-1.007481 0.12073,-0.349744 0.13852,-0.724217 0.13135,-1.091215 -0.007,-0.355685 -0.0822,-0.700572 -0.17508,-1.041961 -0.0917,-0.308594 -0.23347,-0.594021 -0.41068,-0.861555 -0.13986,-0.192307 -0.31972,-0.302442 -0.55625,-0.315949 -0.12364,-0.01408 -0.24296,0.0158 -0.36377,0.03657 -0.48107,-0.0037 -0.47524,-0.759637 0.006,-0.755931 v 0 c 0.1805,-0.02238 0.36117,-0.04321 0.54272,-0.01365 0.40147,0.07805 0.73512,0.258672 0.97804,0.597807 0.21563,0.321443 0.39157,0.663613 0.50699,1.034429 0.10732,0.386765 0.20218,0.776417 0.21503,1.179996 0.0215,0.439277 0.002,0.890932 -0.12283,1.314789 -0.13456,0.414666 -0.30402,0.818309 -0.51968,1.197713 -0.28443,0.365265 -0.57469,0.723874 -0.95425,0.996466 -0.35482,0.258315 -0.74067,0.459661 -1.19156,0.456896 -0.39129,-0.03866 -0.74684,-0.174541 -1.04721,-0.435171 -0.26934,-0.25922 -0.49893,-0.560128 -0.65281,-0.902727 -0.18464,-0.383159 -0.30505,-0.789818 -0.36374,-1.211802 -0.0421,-0.47765 -0.0567,-0.96326 0.0508,-1.434208 0.10533,-0.44854 0.23691,-0.89036 0.47737,-1.287868 0.24644,-0.418893 0.55855,-0.800367 0.95953,-1.080529 0.34555,-0.225904 0.71488,-0.376819 1.13495,-0.375891 0.39788,-0.0024 0.78884,0.04963 1.1702,0.166836 0.45128,0.166711 0.18932,0.875824 -0.26196,0.709115 z"
         id="path897"
         style="opacity:1;vector-effect:none;fill:#ff0000;fill-opacity:1;fill-rule:nonzero;stroke:none;stroke-width:1;stroke-linecap:round;stroke-linejoin:round;stroke-miterlimit:4;stroke-dasharray:none;stroke-dashoffset:0;stroke-opacity:1;paint-order:markers fill stroke" />
      <path
         inkscape:connector-curvature="0"
         d="m 118.80236,35.449242 c -0.19325,0.249508 -0.37198,0.504677 -0.49311,0.797333 -0.0289,0.109918 -0.12262,0.303816 -0.004,0.394353 0.0419,-0.01214 0.10936,-0.04817 0.15257,-0.08729 0.11871,-0.03471 0.14898,-0.124243 0.21373,-0.212214 0.1203,-0.178247 0.16874,-0.372009 0.1588,-0.58379 -0.0123,-0.125693 -0.0797,-0.197249 -0.19859,-0.226253 -0.11719,0.01492 -0.12687,0.04058 -0.14758,0.148521 0.0323,-0.03798 0.0562,-0.08507 0.0968,-0.113943 0.0225,-0.01598 -0.0278,0.04779 -0.0391,0.07296 -0.0573,0.127542 -0.0683,0.254783 -0.0645,0.393009 -0.0335,0.09022 0.15433,0.221986 0.0734,0.143367 0.0368,-0.251737 -0.20735,0.181457 -0.0866,-0.03421 0.0722,-0.153289 0.0717,-0.311484 0.025,-0.471477 -0.0433,-0.100222 -0.0984,-0.110824 -0.18974,-0.09976 -0.0463,0.04855 -0.28007,0.316257 -0.0475,0.0723 -0.0837,0.112112 -0.12412,0.257185 -0.0972,0.395946 0.0195,0.05441 0.0344,-0.05966 0.0578,-0.09947 0.11516,-0.235077 8e-4,-0.02416 -0.0404,-0.0087 -0.001,5.29e-4 0.0603,-0.09186 0.095,-0.241655 0.0513,-0.05624 -0.0531,-0.168063 -0.0309,-0.114289 -0.0437,0.222607 0.24453,-0.170725 0.11943,-0.0056 -0.11377,0.467436 -0.84828,0.288665 -0.73451,-0.178774 v 0 c 0.17409,-0.384977 0.49147,-0.630875 0.91508,-0.509532 0.32567,0.155411 0.50417,0.426992 0.48679,0.796827 -0.0589,0.410787 -0.2413,0.796891 -0.62852,0.995365 -0.39828,0.132781 -0.78078,0.04586 -0.94985,-0.375007 -0.0788,-0.312777 -0.0554,-0.629674 0.0987,-0.918504 0.24648,-0.304858 0.47969,-0.561356 0.89974,-0.551182 0.3383,0.04832 0.59535,0.220657 0.73883,0.539221 0.0994,0.297423 0.13187,0.605911 0.0263,0.908171 -0.14221,0.376259 -0.40442,0.669306 -0.82713,0.636884 -0.36024,-0.100692 -0.57234,-0.350578 -0.64274,-0.72127 -0.0378,-0.432718 0.0386,-0.798536 0.32629,-1.139563 0.25759,-0.229685 0.55149,-0.312007 0.88756,-0.204436 0.32416,0.146722 0.5551,0.384752 0.61624,0.747194 0.0321,0.343625 -0.004,0.670068 -0.17649,0.976892 -0.18596,0.320461 -0.4343,0.592717 -0.78593,0.724186 -0.3031,0.09197 -0.5936,0.09414 -0.84457,-0.128984 -0.25932,-0.297741 -0.32332,-0.638501 -0.2016,-1.017474 0.11422,-0.342858 0.28123,-0.671576 0.52632,-0.940679 0.15365,-0.455887 0.87001,-0.214447 0.71636,0.241443 z"
         id="path899"
         style="opacity:1;vector-effect:none;fill:#ff0000;fill-opacity:1;fill-rule:nonzero;stroke:none;stroke-width:1;stroke-linecap:round;stroke-linejoin:round;stroke-miterlimit:4;stroke-dasharray:none;stroke-dashoffset:0;stroke-opacity:1;paint-order:markers fill stroke" />
    </g>
    <g
       id="g962"
       inkscape:export-filename="../Assets/Sprites/good.png"
       inkscape:export-xdpi="96"
       inkscape:export-ydpi="96"
       transform="matrix(5.1381078,0,0,5.1381078,-165.86734,-317.52211)"
       style="stroke-width:0.19462417">
      <path
         transform="scale(0.26458333)"
         inkscape:connector-curvature="0"
         id="path923"
         d="m 160.1287,297.39571 c -1.77669,0.68342 -0.0812,3.44765 -1.20186,4.41266 -1.05358,0.12621 -0.85989,1.36162 -0.58803,1.83385 -0.82909,0.541 -3.36515,1.20414 -1.84292,2.51395 1.24888,0.0527 -0.0796,1.6803 -0.38365,2.23912 -0.91367,1.69016 -3.35141,2.61948 -3.46052,4.66378 0.4329,1.51374 2.24579,-0.082 2.70369,0.2267 -1.12872,0.67867 -3.60507,1.98559 -2.25726,3.55539 0.71006,0.86896 2.81053,-0.76443 1.89314,0.91518 -0.76002,0.93423 -1.05222,3.44585 0.81055,2.98688 0.56316,-0.18559 1.73979,-1.19817 0.90192,-0.0935 -1.11361,0.66184 -1.31072,2.99972 0.4534,2.48675 1.36308,-0.89847 1.55449,-0.11122 1.23605,1.18303 -0.39905,1.26998 -0.20444,4.36744 1.81083,3.20941 0.81498,-1.18976 1.35087,-0.97731 1.42299,0.53083 -0.15027,1.53416 1.92961,2.43068 2.56069,0.84054 0.30502,-0.86114 1.01965,-1.45876 0.76797,0.0877 0.23206,2.1422 3.16016,0.84529 3.04062,-0.64431 0.58965,1.01218 2.24524,0.45738 2.09405,1.94229 0.65972,1.38215 0.34085,3.51176 1.70757,4.45908 1.96426,-0.0713 0.91478,-2.7267 1.01657,-3.97488 -0.003,-0.64436 -0.40115,-2.50965 0.6387,-1.37948 0.88782,1.07754 3.40893,2.21468 3.81557,0.13742 0.20845,-0.77171 1.19211,1.01988 1.56669,1.37835 0.76744,0.98244 2.63665,3.10665 3.72837,1.41741 0.44775,-0.86663 -0.7828,-2.34798 -0.23925,-2.74763 1.13039,0.5775 1.72097,-1.43284 2.47419,-0.0237 0.72349,0.94849 2.74308,3.0605 3.58189,1.14537 0.28614,-1.32 -1.74411,-2.20581 -1.23605,-3.41099 2.57024,0.93576 5.89577,-0.27644 7.1303,-2.6988 0.28519,-1.80833 -2.4821,-1.3479 -3.01688,-1.6483 1.17393,-0.47158 3.34663,-2.42618 1.60993,-3.45006 -0.52786,-0.28977 -2.18944,0.39874 -2.00056,-0.0335 0.92167,-0.7746 2.34119,-0.21265 3.33985,-1.14328 1.36244,-0.40061 3.25433,-2.33252 1.59528,-3.5212 -0.51228,-0.59901 -1.9616,-0.0148 -2.12263,-0.3418 1.09071,-1.67722 3.73329,-3.46478 2.80623,-5.73033 -1.28054,-1.37619 -2.90127,0.79769 -3.8365,1.27023 1.14006,-0.73401 1.68604,-2.4123 0.40109,-2.95201 0.52984,-0.75033 -0.19404,-1.51655 -0.74219,-1.75851 0.0983,-1.67863 -0.8753,-3.14052 -2.28097,-3.90415 -0.26712,-1.12564 -2.05281,-2.35039 -2.6137,-0.75893 -0.36242,1.24249 1.76891,2.07947 0.58315,3.08524 0.16878,1.16389 -0.72458,1.55343 -1.63644,1.93429 -1.58855,0.86565 -0.44163,2.90385 1.04771,3.01618 0.94662,0.0515 1.53589,0.74987 0.26786,0.94657 -1.16624,-0.17248 -2.6584,1.38031 -1.14188,2.06752 1.32023,0.53924 2.96362,0.95358 0.7673,0.98424 -2.02216,0.50833 -0.3255,2.85285 0.13183,3.9774 0.19321,0.74491 1.54729,2.92964 0.0426,2.53278 -1.06485,-0.23657 -3.43943,-1.0805 -3.31961,0.86007 0.6721,2.08586 -2.99564,0.32754 -2.90458,2.26772 0.30066,1.33595 -0.20328,1.23915 -0.96959,0.2839 -0.78214,-1.20084 -2.45337,-0.6609 -2.57742,0.63198 -1.63401,-0.52519 -2.97,-2.9036 -4.70843,-1.08399 -0.95826,0.72349 -1.54287,-1.46592 -2.85644,-0.95982 -1.29126,0.0445 -2.17881,1.52008 -3.12361,1.83594 -0.17802,-1.26883 -0.56335,-2.96105 -2.0731,-3.10338 -0.0506,-1.25434 -0.71263,-2.78081 -2.19029,-2.58858 0.82556,-1.31406 3.89965,-1.41057 3.03501,-3.42913 -0.7952,-1.07334 -2.70621,-0.17882 -3.41169,-0.92565 0.47545,-1.12281 1.19921,-2.46399 0.20438,-3.47168 -0.0248,-1.75954 -0.81881,-4.22139 1.23605,-5.16113 1.24008,-0.59172 1.95181,-2.80784 0.18904,-3.17452 -1.44897,0.2584 -0.91328,-1.81932 -2.27888,-1.89314 -0.58218,-0.56854 -0.53242,-1.88483 -1.59808,-1.85338 z"
         style="opacity:1;vector-effect:none;fill:#50bc50;fill-opacity:1;fill-rule:nonzero;stroke:none;stroke-width:0.73558748;stroke-linecap:round;stroke-linejoin:round;stroke-miterlimit:4;stroke-dasharray:none;stroke-dashoffset:0;stroke-opacity:1;paint-order:markers fill stroke" />
      <path
         inkscape:connector-curvature="0"
         id="path919"
         d="m 49.754586,77.505863 c -0.760693,0.176168 -0.0047,1.367936 -0.449276,1.661753 -0.322223,0.331846 0.43752,0.834049 -0.205981,0.828535 -0.460764,0.362349 0.61518,0.604131 -0.01863,0.774456 -0.580593,0.309819 0.103209,0.96932 0.14409,1.044403 -0.503198,0.104333 -0.431472,0.744525 0.03163,0.836793 -0.256894,0.31024 -0.137041,0.670525 -0.515517,0.871164 -0.05678,0.407429 -0.698161,0.115708 -0.800245,0.616434 -0.149003,0.298757 0.09611,0.56701 -0.239713,0.764964 -0.107513,0.107222 -0.750951,-0.14922 -0.785984,0.345209 -0.306036,-0.484618 -0.999771,-0.343513 -1.316199,-0.235643 -0.259173,-0.494062 -0.953571,-0.353711 -1.224492,0.05353 -0.157059,0.12173 0.06114,-0.864703 -0.476586,-0.708374 -0.263453,0.128296 -0.05016,-0.44142 -0.272446,-0.555932 0.799801,-0.126564 0.638019,-1.227455 -0.154771,-1.153959 -0.559837,0.15412 0.37959,-0.813401 -0.326853,-0.931701 0.462206,-0.35102 -0.215606,-0.872644 0.342342,-1.054944 0.360031,-0.281779 0.760711,-1.142159 0.06848,-1.257062 -0.377393,0.148175 0.195128,-1.098018 -0.507203,-0.813022 -0.292606,0.588581 -0.584986,-0.883968 -1.033389,-0.120124 -0.240863,0.281345 0.03187,1.052518 -0.147592,1.042834 -0.419748,-0.245941 -0.896414,-0.530733 -1.400725,-0.464426 -0.759635,0.473922 0.735541,1.132806 0.729914,1.263452 -0.3843,-0.05236 -1.43446,0.279334 -0.68757,0.630193 0.283514,0.112789 0.960545,0.180919 0.341304,0.349869 -0.493017,0.128635 -0.788659,0.760544 -0.435967,0.994306 -0.349025,0.261306 -0.433562,0.786265 -0.195413,1.023798 -0.309589,0.388659 0.05953,0.979609 0.551283,0.799811 -0.209336,0.34384 -0.298,1.071862 0.254248,1.047996 -0.35424,0.496557 0.320845,0.864831 0.691947,0.502812 -0.126693,0.495559 -0.06377,1.652624 0.72091,1.282933 0.219845,-0.219869 0.264401,0.840954 0.787503,0.515638 0.325652,-0.418028 0.630502,0.491673 1.091099,0.0672 0.145886,-0.270237 0.356418,0.21585 0.536213,0.245732 0.116647,0.423183 0.492263,1.717556 1.031145,1.040456 0.210746,-0.384683 -0.02252,-1.18541 0.101041,-1.321726 0.246105,0.344164 0.827241,0.435244 1.007219,-0.01328 0.301019,0.378372 0.660487,0.780938 1.14191,0.908383 0.562398,0.07503 0.218337,-0.825437 0.716007,-0.580586 0.271891,-0.277185 0.973519,0.531815 1.183759,-0.179485 0.07264,-0.406318 -0.436327,-0.895946 0.224171,-0.739897 0.581975,-0.09511 1.133425,-0.491048 1.398,-1.017193 0.273749,-0.417296 -0.472239,-0.577615 -0.41439,-0.705819 0.453771,-0.324098 0.145269,-0.837226 0.647679,-1.028951 0.496168,-0.282837 0.4279,-1.107959 -0.205433,-1.136798 0.305482,-0.387252 0.830982,-0.931291 0.509373,-1.446729 -0.305763,-0.140795 -0.378278,-0.194151 -0.05516,-0.379584 0.202517,-0.627123 -0.612952,-0.169362 -0.662077,-0.388766 -0.349637,-0.542493 0.687025,-0.506875 0.778205,-0.998492 0.0045,-0.683051 -0.813588,-0.173024 -1.058775,-0.514707 -0.517072,0.22937 0.1632,-0.568225 0.02777,-0.890143 -0.317315,-0.825778 -0.870114,0.378957 -0.906177,0.797465 -0.182985,-0.529818 -0.105878,-1.188726 -0.462467,-1.635853 z m 0.03721,1.000456 c 0.195834,0.448683 0.04343,1.467366 0.624253,1.510501 0.292989,0.138067 0.155183,0.248047 0.296278,0.509349 0.03095,0.07311 -0.138055,0.580224 0.244152,0.468768 0.301212,-0.156808 -0.465103,0.470442 0.04853,0.464344 0.239975,0.117956 0.130181,-0.108048 0.448699,-0.172771 -0.165301,0.301617 -1.193241,0.762376 -0.611483,1.036273 0.305741,-0.110022 0.813321,-0.867794 1.083585,-0.418023 -0.142756,0.520803 -0.566812,0.919583 -0.935122,1.280858 0.114585,0.369589 0.206311,0.318024 0.508788,0.175358 0.874784,0.126106 -0.191876,0.907476 -0.668467,0.857655 -0.361484,-0.07406 -0.982091,0.516596 -0.350195,0.570185 0.246282,-0.0199 1.01074,-0.458864 0.543978,0.06305 -0.115768,0.409573 -1.111213,0.50419 -0.500819,0.876533 0.325065,-0.243776 1.13375,-0.100102 0.55634,0.322832 -0.394238,0.421997 -1.058789,0.636677 -1.580489,0.318177 -0.671423,0.261469 0.395645,0.880242 0.122989,1.197859 -0.502738,0.02734 -0.631209,-0.876822 -0.959019,-0.772145 -0.472467,0.135409 0.33683,0.880311 -0.204216,0.386639 -0.164352,-0.488019 -0.755941,-0.0076 -0.355256,0.279357 0.204456,0.336902 0.04134,0.749284 -0.280562,0.342107 -0.470598,-0.168402 -0.59065,-1.173094 -1.11152,-0.824236 0.05642,0.91611 -0.598241,0.04175 -1.013219,-0.179633 -0.540837,0.270118 0.05393,0.941938 -0.09924,1.433531 0.0213,0.774112 -0.322244,-0.349875 -0.398923,-0.601025 0.09796,-0.35237 -0.212429,-1.112488 -0.475941,-0.48369 0.0303,-0.370824 -0.356539,-0.796642 -0.492278,-0.280474 0.08838,0.425122 -0.379407,0.523232 -0.462701,0.04328 0.308912,-0.567309 -0.46804,-0.438423 -0.446048,0.01204 -0.60344,0.738942 -0.21863,-1.246814 -0.873767,-0.656436 -0.04216,0.310438 -0.404387,0.610425 -0.393642,0.08358 -0.1,-0.372483 0.190558,-0.902528 0.06358,-1.180245 -0.255106,-0.109935 -0.634066,0.266189 -0.810863,0.246425 0.0881,-0.440272 0.480521,-0.524135 0.493223,-0.83579 -0.199379,-0.524476 -1.005676,0.729046 -0.781944,-0.09214 0.13948,-0.449358 0.489151,-0.595963 0.14083,-0.922967 -0.28266,0.32992 -1.019699,0.219144 -0.492535,-0.255418 0.255463,-0.07228 1.085596,-0.446567 0.475813,-0.642755 -0.272553,-0.03744 -0.959408,0.530431 -0.551717,-0.02633 0.192201,-0.451273 0.856184,-0.632114 0.99496,-0.995249 -0.275614,-0.291671 0.537578,-0.530987 0.01413,-0.760844 -0.263755,-0.08691 -0.830625,-0.20085 -0.239686,-0.218313 0.316542,0.08746 1.197623,-0.284752 0.591767,-0.516916 -0.392319,-0.08471 -1.222153,-0.537496 -1.188043,-0.723434 0.507405,0.124441 0.850543,0.396898 1.232485,0.65057 0.692441,0.06555 0.0403,-1.252098 0.379622,-1.346808 0.152767,0.237225 0.242959,0.901684 0.641503,0.604218 -0.230598,0.459343 0.238929,0.689197 0.545187,0.453202 0.100857,0.637495 -1.039407,0.721247 -0.772046,1.277959 0.400793,0.31074 -0.493726,0.927515 0.266128,1.088718 -0.239932,0.329853 -0.591637,1.134179 0.157102,0.883772 0.503132,-0.119875 0.876475,0.333256 0.222853,0.443386 -0.316703,0.088 -0.826703,0.424296 -0.445942,0.681294 0.688671,-0.542253 0.154557,1.089096 0.860775,0.653505 0.217122,-0.21 -0.107453,1.048597 0.475543,0.861124 0.268949,-0.498767 0.92928,-0.909627 1.156917,-0.136621 0.358291,0.05726 0.260059,-0.16284 0.477356,-0.240591 0.518909,-0.338161 0.831649,0.792361 1.262049,0.329473 0.008,-0.815282 0.517512,0.157384 0.772309,0.170672 0.604927,-0.02973 -0.286044,-0.773801 0.15789,-0.753063 0.201059,0.387803 0.351737,-0.0834 0.612838,0.06339 0.466768,-0.194829 -0.251425,-0.798552 0.355688,-0.563994 0.273902,-0.09285 1.018283,0.482986 0.860819,-0.267822 -0.07896,-0.488103 -0.377227,-0.781648 -0.550871,-1.21698 0.01397,-0.449596 0.842362,0.15404 0.839772,-0.404593 -0.225909,-0.230092 -1.484003,-0.356529 -0.695957,-0.576527 0.479324,0.05544 0.757182,-0.526047 0.140689,-0.545359 -0.421804,-0.0061 -0.722627,-0.545002 -0.143677,-0.610865 0.54872,-0.05102 0.06103,-0.540163 0.44703,-0.613024 0.279887,-0.299992 -0.738754,-0.668104 -0.101227,-0.839779 -0.07695,-0.297762 -0.138795,-0.636553 -0.129029,-0.965129 z m -7.969538,6.666775 c 0.03076,-0.0093 0.07921,-0.100391 0,0 z M 51.1576,83.517898 c -0.03865,0.01101 0.0154,0.01363 0,0 z m -8.881629,-4.892723 c 0.09214,-0.0016 -0.01503,0.07542 0,0 z m 0.445453,0.504362 c 0.0281,0.04678 -0.08745,0.0453 0,0 z m -2.152841,0.276984 -0.06046,0.01834 z m 9.024771,0.173633 c 0.02682,0.0065 0.04196,0.07972 0,0 z m 2.341459,0.103354 -0.05529,0.04702 z m -0.137459,0.06149 c 0.05601,0.08713 -0.6942,0.452448 -0.283186,0.05839 0.08739,-0.04249 0.185378,-0.06875 0.283186,-0.05839 z m -0.732255,0.0057 c 0.0016,0.01492 -0.03819,0.03031 0,0 z m -0.498161,0.03204 c 0.0091,0.01498 -0.04962,0.0371 0,0 z m -1.268655,0.517798 c -0.0076,0.08616 -0.06286,-0.01876 0,0 z m -8.742619,0.498676 c -0.01373,0.06925 -0.196909,0.0024 0,0 z m 0.928108,0.447519 c 0.0062,-0.0016 1.4e-4,0.01243 0,0 z m -0.256831,0.279053 c -0.192054,0.148119 -0.73501,0.364093 -0.21313,0.09983 0.07058,-0.03426 0.141525,-0.06777 0.21313,-0.09983 z m -0.130742,1.188556 -0.02222,0.02687 z m 8.905399,0.218075 c 0.01299,5.29e-4 0.05164,0.03786 0,0 z m -0.772046,0.853697 c 0.30581,0.09425 0.388067,0.660122 0.106971,0.203086 l -0.05671,-0.100118 z m -0.904338,0.501777 c 0.162536,0.0077 0.121777,0.413755 0.01463,0.08634 z m 1.31155,0.161229 c 0.0542,0.0678 -0.01767,0.08598 0,0 z m 0.819587,0.254249 c 0.07105,0.0079 -0.02903,0.07002 0,0 z m -2.40347,0.301791 c -0.08484,0.188725 -0.07312,-0.01701 0,0 z m -2.556952,0.245978 c -0.02421,0.02947 -0.08241,0.08724 0,0 z m 1.811261,0.0098 c -0.09276,0.149929 -0.05777,-0.01651 0,0 z m 3.194637,0.440801 c 0.01855,0.04188 -0.0652,0.0024 0,0 z m -2.630331,0.04031 c 0.06554,0.05893 -0.04075,0.0076 0,0 z m 0.906923,1.67845 c 0.07089,0.04254 -0.07615,0.03353 0,0 z m 0.947227,0.09974 c -0.02331,0.05721 -0.178483,0.132575 0,0 z m -1.517219,0.46147 c 0.05097,0.06545 -0.138761,0.044 0,0 z m -2.587956,0.678511 c 0.04187,0.0081 0.02596,0.05747 0,0 z"
         style="opacity:1;vector-effect:none;fill:#2b592b;fill-opacity:1;fill-rule:nonzero;stroke:none;stroke-width:0.19462417;stroke-linecap:round;stroke-linejoin:round;stroke-miterlimit:4;stroke-dasharray:none;stroke-dashoffset:0;stroke-opacity:1;paint-order:markers fill stroke" />
      <path
         inkscape:connector-curvature="0"
         d="m 44.627238,82.351319 c 0.05564,-0.08853 0.110479,-0.177834 0.158406,-0.270817 0.04471,-0.0895 0.0875,-0.179959 0.12977,-0.270637 0.02249,-0.05285 0.05935,-0.02535 0.183864,0.03854 0.0105,0.0054 -0.0094,0.0217 -0.01392,0.03258 -0.01167,0.02786 -0.01733,0.04272 -0.02888,0.072 -0.04026,0.100592 -0.07199,0.204105 -0.103211,0.307761 -0.03534,0.11275 -0.07323,0.224682 -0.108855,0.337339 -0.0024,0.01249 -0.05261,0.157257 -0.05886,0.155852 -0.0611,-0.01371 -0.119364,-0.03789 -0.179046,-0.05683 0.009,-0.102957 0.04096,-0.201922 0.07168,-0.300011 0.04168,-0.131164 0.08529,-0.261689 0.128876,-0.392231 0.03259,-0.105347 0.06751,-0.209921 0.105915,-0.31328 0.03222,-0.08901 0.01159,-0.07507 0.196554,0.0035 0.0037,0.0016 -0.02619,0.09455 -0.02706,0.09739 -0.02938,0.0974 -0.06578,0.192317 -0.102473,0.287117 -0.04352,0.113314 -0.09086,0.22505 -0.139128,0.336402 -0.01638,0.02535 -0.07455,0.201578 -0.118362,0.19621 -0.05333,-0.0065 -0.09041,-0.05806 -0.13562,-0.08708 0.0089,-0.09639 0.04835,-0.188206 0.08503,-0.276995 0.05543,-0.125683 0.114416,-0.249608 0.175456,-0.372645 0.05118,-0.102542 0.102986,-0.204687 0.160909,-0.303612 0.06859,-0.107661 0.06658,-0.119578 0.195448,0.03387 0.0108,0.01286 -0.04584,0.118552 -0.0513,0.130445 -0.05853,0.118882 -0.12533,0.233352 -0.186851,0.350671 -0.06229,0.11439 -0.118221,0.232021 -0.178821,0.347297 -0.0057,0.01138 -0.01151,0.02273 -0.01709,0.03417 -0.0068,0.01386 -0.01365,0.02768 -0.01987,0.0418 -0.0013,0.003 -5.29e-4,0.01029 -0.0036,0.0093 -0.184822,-0.05978 -0.197736,-0.01389 -0.153829,-0.09385 0.05056,-0.09534 0.09557,-0.193421 0.1446,-0.289536 0.05801,-0.116129 0.111049,-0.234649 0.169082,-0.350756 0.02641,-0.0591 0.06465,-0.113117 0.08818,-0.173551 0.05688,0.02133 0.117555,0.03447 0.170651,0.06399 0.0079,0.0044 -0.0097,0.01516 -0.01453,0.02281 -0.0065,0.01048 -0.01299,0.02103 -0.01945,0.03157 -0.02209,0.0362 -0.04352,0.07277 -0.06586,0.108826 -0.05204,0.08339 -0.104415,0.166433 -0.154451,0.251042 -0.09017,0.146291 -0.01588,0.138776 -0.225345,0.04144 0.04489,-0.06033 0.07734,-0.129043 0.111778,-0.195649 0.04218,-0.08352 0.08116,-0.168421 0.136403,-0.244263 0.08672,-0.108083 0.185907,-0.108321 0.293548,-0.03465 0.08882,0.07857 0.1481,0.182923 0.206467,0.284589 0.05812,0.110493 0.114353,0.222181 0.167087,0.335367 0.02394,0.0602 0.05216,0.118589 0.07382,0.17966 -0.0571,0.02669 -0.11186,0.05913 -0.171315,0.08007 -0.006,0.0021 -0.0067,-0.01077 -0.01,-0.01622 -0.02471,-0.04146 -0.04909,-0.08307 -0.07458,-0.124069 -0.05598,-0.101713 -0.11349,-0.202538 -0.16991,-0.304011 -0.05121,-0.100375 -0.108442,-0.197514 -0.160665,-0.29732 -0.04776,-0.107014 -0.06516,-0.105876 0.133678,-0.167027 0.0026,-7.93e-4 0.0467,0.05761 0.04807,0.05939 0.07043,0.09607 0.134739,0.196373 0.19912,0.296539 0.07476,0.121214 0.148072,0.243084 0.215466,0.368567 0.04829,0.09215 0.08519,0.189614 0.128961,0.283835 0.03562,0.08915 0.03558,0.06638 -0.16124,0.109966 -0.0055,0.0013 -0.05113,-0.09986 -0.05337,-0.104479 -0.04759,-0.108474 -0.106151,-0.211267 -0.16655,-0.312957 -0.06284,-0.11317 -0.130662,-0.223374 -0.199358,-0.333033 -0.04946,-0.06562 -0.0881,-0.138452 -0.134292,-0.206185 -0.0019,-0.0024 -0.0079,-0.0059 -0.0052,-0.0075 0.05364,-0.03142 0.107093,-0.06451 0.165301,-0.08632 0.0029,-0.0011 0.06869,0.116507 0.07201,0.122288 0.05881,0.09623 0.120475,0.190383 0.176041,0.288613 0.05361,0.09208 0.100668,0.187759 0.147166,0.283562 0.04395,0.10964 0.05639,0.113784 -0.144534,0.156323 -0.0033,7.94e-4 -0.03932,-0.05774 -0.04164,-0.06141 -0.04801,-0.09675 -0.100285,-0.191328 -0.147918,-0.28825 -0.05625,-0.116914 -0.111916,-0.23413 -0.166955,-0.351626 -0.03185,-0.06305 -0.06489,-0.125741 -0.09262,-0.190765 0.05844,-0.02413 0.11371,-0.05821 0.175335,-0.07236 0.0024,-5.29e-4 0.06587,0.126527 0.09524,0.183441 0.04327,0.09207 0.09357,0.180499 0.139139,0.271373 0.0067,0.0122 0.01336,0.02439 0.02003,0.03661 0.06498,0.101206 -0.09405,0.203314 -0.159031,0.102108 v 0 c -0.0079,-0.01415 -0.01577,-0.02832 -0.02365,-0.04249 -0.04423,-0.0905 -0.0956,-0.17735 -0.137697,-0.268975 -0.006,-0.01151 -0.09222,-0.177589 -0.09177,-0.177977 0.04756,-0.04112 0.104335,-0.07018 0.156501,-0.105265 -0.008,-0.01 -0.0027,-0.004 0.0054,0.0136 0.01603,0.03473 0.03215,0.06952 0.04934,0.103708 0.0091,0.01812 0.01881,0.03593 0.02823,0.0539 0.05435,0.116927 0.110186,0.233183 0.165754,0.349533 0.04431,0.09242 0.09633,0.180898 0.138885,0.27422 0.01151,0.01852 0.02355,0.03697 0.02215,0.0381 -0.153439,0.123833 -0.126523,0.15648 -0.153392,0.07151 -0.04538,-0.09297 -0.09005,-0.186428 -0.142367,-0.275783 -0.05484,-0.09829 -0.116536,-0.191944 -0.175464,-0.287731 -0.08911,-0.157057 -0.133749,-0.105948 0.06954,-0.256154 0.0029,-0.0021 0.0042,0.0059 0.0063,0.0088 0.0483,0.06919 0.08709,0.144788 0.138535,0.211956 0.06915,0.11073 0.138393,0.221437 0.20134,0.335893 0.06289,0.105635 0.124616,0.212101 0.174035,0.324903 0.0026,0.0056 0.05078,0.09597 0.04915,0.09751 -0.152389,0.144987 -0.139719,0.16378 -0.162354,0.08517 -0.04395,-0.09139 -0.07865,-0.187116 -0.125105,-0.277397 -0.06492,-0.122169 -0.136311,-0.240348 -0.208553,-0.358294 -0.06197,-0.09668 -0.123991,-0.193384 -0.19132,-0.286459 -0.01969,-0.02588 -0.03021,-0.03941 -0.02955,-0.04004 0.151881,-0.145444 0.118848,-0.158507 0.154517,-0.07154 0.05054,0.0989 0.108505,0.193878 0.158144,0.293306 0.05529,0.09914 0.111757,0.197612 0.165555,0.297569 0.02561,0.04083 0.04962,0.08248 0.07438,0.123788 0.0049,0.0083 0.02233,0.01762 0.01548,0.02439 -0.04513,0.04467 -0.102502,0.07497 -0.153752,0.112458 -0.02743,-0.05788 -0.04553,-0.120536 -0.0732,-0.178543 -0.05001,-0.109477 -0.105331,-0.21658 -0.160012,-0.323768 -0.04731,-0.08281 -0.09382,-0.168355 -0.161258,-0.236863 -0.03023,-0.02506 -0.039,-0.006 -0.0081,-0.04108 -0.0606,0.05787 -0.08665,0.140727 -0.125802,0.213024 -0.04033,0.07538 -0.07683,0.1528 -0.121832,0.225626 -0.06685,-0.0085 -0.134522,-0.01204 -0.200541,-0.02553 -0.005,-0.0011 0.0031,-0.0097 0.0047,-0.01453 0.0032,-0.0094 0.0057,-0.01905 0.0098,-0.02808 0.01606,-0.03532 0.03905,-0.06814 0.05678,-0.102589 0.05296,-0.08387 0.101243,-0.170725 0.155358,-0.253971 0.02946,-0.0448 0.05621,-0.09106 0.08418,-0.13675 0.0056,-0.0092 0.0054,-0.0279 0.01614,-0.02799 0.06568,-5.29e-4 0.130202,0.01746 0.195305,0.02619 -0.02833,0.06287 -0.05563,0.126196 -0.09071,0.185991 -0.06123,0.114594 -0.111572,0.234739 -0.16918,0.351174 -0.05062,0.09555 -0.09472,0.194178 -0.144708,0.289991 -0.04611,0.09186 -0.0093,0.04465 -0.216773,0.02156 -0.003,-2.65e-4 0.02352,-0.05782 0.0254,-0.06194 0.0064,-0.01389 0.01257,-0.02788 0.01886,-0.04182 0.06236,-0.113689 0.115689,-0.231865 0.178351,-0.345393 0.06017,-0.116459 0.125412,-0.230018 0.185856,-0.346318 0.02521,-0.049 0.01511,-0.02765 0.03624,-0.07493 0.0037,-0.0083 0.0021,-0.02665 0.01103,-0.02487 0.207679,0.04169 0.1071,0.108828 0.18475,0.0136 0.0043,-0.0053 -0.0072,0.01164 -0.01082,0.01744 -0.06095,0.09136 -0.10563,0.192278 -0.157046,0.289018 -0.05928,0.120682 -0.118901,0.241088 -0.17372,0.363871 -0.03082,0.07081 -0.0556,0.143528 -0.08466,0.21468 -0.04517,-0.0173 -0.08714,-0.052 -0.135509,-0.0519 -0.02233,4.5e-5 -0.02789,0.03486 -0.04187,0.05225 -0.0026,0.0032 0.0056,-0.0061 0.0076,-0.0096 0.01905,-0.03309 0.03472,-0.06852 0.05111,-0.102921 0.04679,-0.109627 0.09516,-0.218548 0.138073,-0.329795 0.03484,-0.0934 0.07458,-0.185153 0.101737,-0.281278 0.0024,-0.0063 0.02199,-0.07969 0.02596,-0.07994 0.283993,-0.01789 0.205417,-0.04036 0.179978,0.02275 -0.03515,0.103299 -0.07667,0.204613 -0.105548,0.310089 -0.0428,0.129934 -0.08721,0.259334 -0.128627,0.389705 -0.02729,0.08692 -0.05758,0.17349 -0.07182,0.263771 -0.242914,0.0031 -0.184996,0.05494 -0.138369,-0.097 0.03418,-0.112507 0.07273,-0.223642 0.108707,-0.335585 0.03188,-0.108542 0.06476,-0.21673 0.104976,-0.322495 0.0049,-0.01185 0.03065,-0.103357 0.04293,-0.105344 0.127553,-0.02066 0.234453,-0.06253 0.188526,0.02611 -0.03926,0.09464 -0.08801,0.185335 -0.13131,0.278153 -0.04834,0.100098 -0.106653,0.194273 -0.163669,0.289589 -0.03841,0.113972 -0.217503,0.05361 -0.179091,-0.06036 z"
         id="path927"
         style="opacity:1;vector-effect:none;fill:#1a1a1a;fill-opacity:1;fill-rule:nonzero;stroke:none;stroke-width:0.19462417;stroke-linecap:round;stroke-linejoin:round;stroke-miterlimit:4;stroke-dasharray:none;stroke-dashoffset:0;stroke-opacity:1;paint-order:markers fill stroke" />
      <path
         inkscape:connector-curvature="0"
         d="m 47.232016,82.107374 c 0.08304,-0.09992 0.166558,-0.20478 0.254516,-0.309275 0.07393,-0.09667 0.150556,-0.191632 0.234431,-0.279929 0.01037,-0.0088 0.02093,-0.01738 0.03114,-0.0264 0.0091,-0.008 0.01516,-0.02035 0.02638,-0.02495 0.09633,-0.03951 0.165602,0.0613 0.11698,0.148494 -0.05101,0.08538 -0.123794,0.154938 -0.181899,0.234749 -0.0888,0.107887 -0.172553,0.219787 -0.25791,0.330386 -0.01148,0.0141 -0.147058,0.201877 -0.15239,0.200374 -0.05614,-0.01582 -0.09098,-0.07302 -0.136472,-0.109525 0.0383,-0.0848 0.09409,-0.160596 0.146307,-0.237225 0.0751,-0.109487 0.150818,-0.218403 0.223123,-0.329766 0.06447,-0.09779 0.132956,-0.192831 0.197358,-0.290663 0.04347,-0.06494 0.05809,-0.10527 0.185828,0.04601 0.0024,0.0027 -0.05781,0.06881 -0.07276,0.0854 -0.06719,0.07593 -0.136351,0.149619 -0.207436,0.221974 -0.08813,0.100476 -0.181065,0.196779 -0.267076,0.299077 -0.142081,0.160724 0.104021,-0.119644 -0.09501,0.109855 -0.0057,0.0066 -0.01175,0.01286 -0.01757,0.01934 -0.0028,0.0031 -0.0053,0.01233 -0.0083,0.0094 -0.04386,-0.04236 -0.0817,-0.09052 -0.122553,-0.135774 0.06438,-0.089 0.130541,-0.176588 0.194062,-0.266224 0.08098,-0.114577 0.168333,-0.224462 0.25586,-0.33406 0.04857,-0.05119 0.08357,-0.115837 0.133397,-0.165838 0.05589,0.02678 0.118214,0.04298 0.167659,0.08033 0.0099,0.0075 -0.0113,0.02225 -0.01783,0.03285 -0.03621,0.05885 -0.08335,0.11121 -0.126111,0.165267 -0.07763,0.09962 -0.157911,0.197056 -0.232431,0.299061 -0.04966,0.06333 -0.09362,0.131162 -0.143201,0.194503 -0.03662,0.06382 0.0167,-0.02098 -0.133993,-0.108633 -0.01148,-0.0067 -0.01452,0.02432 -0.02673,0.02954 -0.0094,0.004 0.01148,-0.01696 0.0172,-0.02545 0.03074,-0.04553 0.01365,-0.02082 0.04759,-0.06866 0.07194,-0.09149 0.143822,-0.183086 0.216913,-0.273677 0.05201,-0.06854 0.108805,-0.133493 0.158938,-0.203449 0.0021,-0.0026 0.0038,-0.01024 0.0062,-0.0079 0.04273,0.04202 0.08811,0.08287 0.121017,0.132958 0.0054,0.0083 -0.01251,0.01527 -0.01844,0.02318 -0.003,0.004 0.01294,-0.01532 0.0097,-0.01148 -0.07402,0.0872 -0.04005,0.04819 -0.0934,0.108741 0.0019,-0.0019 0.0073,-0.0074 0.0057,-0.0053 -0.04969,0.06591 -0.10255,0.128673 -0.149373,0.196808 -0.0054,-2.65e-4 -0.03334,0.06496 -0.03563,0.05944 -0.0024,-0.0057 0.0042,-0.01413 -1.41e-4,-0.0186 -0.09738,-0.100713 -0.132664,-0.0522 -0.08976,-0.100237 0.0531,-0.05382 0.10378,-0.11022 0.153138,-0.167532 0.06351,-0.06958 0.104354,-0.135654 0.188696,-0.199628 0.08154,-0.05278 0.160636,-0.05004 0.242284,-0.0016 0.07294,0.05694 0.111561,0.139218 0.146886,0.222239 0.0384,0.101603 0.07202,0.20483 0.104389,0.30848 0.02829,0.10304 0.05948,0.205312 0.07982,0.31029 0.01947,0.109549 0.04582,0.108921 -0.173447,0.109223 -0.0013,3e-6 -0.01603,-0.04742 -0.02426,-0.07337 -0.0322,-0.110921 -0.06623,-0.22116 -0.101687,-0.331076 -0.04363,-0.12895 -0.08954,-0.257074 -0.136652,-0.384783 -0.01505,-0.05173 -0.04454,-0.100592 -0.05542,-0.153713 -0.0027,-0.01299 -0.01749,-0.03397 -0.0054,-0.03943 0.05661,-0.02558 0.121293,-0.02693 0.181938,-0.0404 0.04845,0.08361 0.08859,0.172548 0.12805,0.260805 0.05886,0.125669 0.112237,0.253725 0.167011,0.381185 0.04557,0.107368 0.08586,0.216964 0.124134,0.327129 0.02798,0.07963 0.03756,0.03601 -0.160189,0.10184 -5.29e-4,1.96e-4 -0.0059,-0.01611 -0.01968,-0.05781 -0.03479,-0.106469 -0.07735,-0.210323 -0.120991,-0.313436 -0.05349,-0.119425 -0.111776,-0.236583 -0.168508,-0.354476 -0.04021,-0.08326 -0.08514,-0.16452 -0.117634,-0.251248 -0.0013,-0.0042 -0.0079,-0.01029 -0.0041,-0.01246 0.168344,-0.09586 0.137499,-0.133234 0.19408,-0.05281 0.02267,0.03221 0.0425,0.06615 0.06293,0.09979 0.04899,0.08122 0.09033,0.166422 0.129873,0.252523 0.03833,0.08489 0.06541,0.173988 0.07212,0.26702 -0.0036,0.09826 -0.0172,0.0885 -0.169706,0.102918 -0.01897,0.0019 -0.05732,-0.07442 -0.06451,-0.0867 -0.03967,-0.08028 -0.07885,-0.160869 -0.113583,-0.243417 -0.0249,-0.07252 -0.05897,-0.141385 -0.08384,-0.213876 -0.02654,-0.102618 -0.0013,-0.09329 0.169039,-0.102433 0.01381,-7.94e-4 0.05676,0.09629 0.06175,0.105886 0.05206,0.107379 0.09722,0.217972 0.135699,0.330888 0.04284,0.115369 0.07532,0.233834 0.104421,0.353258 0.03718,0.156475 0.06054,0.115536 -0.138221,0.195178 -0.103778,-0.06079 -0.0083,-0.223861 0.09552,-0.16307 v 0 c -0.04148,0.02753 -0.08783,0.04886 -0.124439,0.08259 -0.0067,0.0062 0.0029,0.0182 0.0055,0.027 0.01312,0.04391 -0.01551,-0.113281 -0.01572,-0.07642 -0.02798,-0.115257 -0.05728,-0.230174 -0.09953,-0.341256 -0.03455,-0.105932 -0.07738,-0.208905 -0.124606,-0.309812 -0.01429,-0.02797 -0.04041,-0.07644 -0.03989,-0.07676 0.148379,-0.09052 0.16527,-0.02069 0.142748,-0.102751 0.02297,0.06954 0.05599,0.135025 0.07931,0.204523 0.03131,0.07719 0.06895,0.151468 0.103984,0.226999 0.04529,0.08405 0.02719,0.01879 -0.114957,0.102455 -0.0046,0.0027 -0.0021,0.02813 0.0045,0.01524 0.01125,-0.06959 -0.0298,-0.141878 -0.0508,-0.205677 -0.0364,-0.0808 -0.07483,-0.160576 -0.120123,-0.236839 -0.08309,-0.13653 -0.110032,-0.0881 0.07227,-0.228626 0.0024,-0.0019 0.0016,0.0057 0.0024,0.0085 0.02313,0.08309 0.07617,0.155816 0.109191,0.234826 0.05742,0.12015 0.117165,0.23918 0.171902,0.360608 0.04586,0.107426 0.09018,0.215763 0.127291,0.326538 0.003,0.0099 0.0056,0.0199 0.009,0.02967 0.0034,0.0099 0.01855,0.02183 0.01127,0.02941 -0.148183,0.154204 -0.142378,0.158218 -0.185399,0.05115 -0.037,-0.106641 -0.0753,-0.212924 -0.119102,-0.316992 -0.05492,-0.126918 -0.10723,-0.254977 -0.166391,-0.38004 -0.03518,-0.08092 -0.07331,-0.161335 -0.114361,-0.239234 0.12196,-0.05723 0.182885,-0.02178 0.151728,-0.101052 -0.0019,-0.0044 0.0013,0.0094 0.0028,0.01392 0.01357,0.04307 0.0315,0.08495 0.04716,0.127246 0.04774,0.129802 0.09479,0.259818 0.139383,0.39075 0.03518,0.110189 0.07073,0.220139 0.101896,0.331555 0.0084,0.02653 0.01939,0.06017 0.01828,0.06088 -0.181232,0.117539 -0.156295,0.13103 -0.174033,0.03587 -0.01791,-0.09951 -0.0475,-0.1959 -0.07358,-0.293518 -0.03057,-0.09938 -0.06301,-0.198093 -0.09843,-0.295846 -0.02143,-0.05422 -0.0434,-0.108866 -0.08392,-0.151871 -0.0199,-0.01714 -0.03918,0.0024 -0.05748,0.01561 -0.05919,0.05432 -0.102883,0.117608 -0.167182,0.187828 -0.05693,0.06226 -0.110546,0.128408 -0.17739,0.180581 -0.176255,0.116393 -0.210778,-0.08234 -0.13121,-0.172088 0.06467,-0.103439 0.142997,-0.197268 0.220573,-0.291182 0.114988,-0.133186 -0.116814,0.137128 0.08143,-0.09576 0.0076,-0.0089 0.01228,-0.0304 0.02318,-0.02625 0.05674,0.02169 0.106029,0.05973 0.155752,0.09462 0.0033,0.0024 -0.0046,0.0066 -0.0069,0.0098 -0.05525,0.06789 -0.104593,0.14106 -0.160933,0.208306 -0.07224,0.08795 -0.140555,0.178948 -0.213844,0.266025 -0.01667,0.0222 -0.10391,0.162015 -0.118013,0.160311 -0.05901,-0.0071 -0.10252,-0.06053 -0.150685,-0.09537 -0.003,-0.0021 0.0039,-0.0063 0.0058,-0.0094 0.0382,-0.0759 0.100301,-0.138171 0.147659,-0.208293 0.07357,-0.10536 0.15517,-0.204373 0.234783,-0.305152 0.03848,-0.05011 0.0804,-0.09733 0.119642,-0.14659 0.0058,-0.0072 0.0061,-0.02355 0.01529,-0.02313 0.06483,0.0029 0.127977,0.02162 0.191966,0.03243 -0.04008,0.05998 -0.09442,0.110244 -0.135094,0.169944 -0.08749,0.105281 -0.170801,0.214278 -0.252063,0.32444 -0.06408,0.0904 -0.129524,0.179652 -0.195059,0.268904 -0.0519,-0.03026 -0.106087,-0.05691 -0.155699,-0.09079 -0.0036,-0.0024 0.0058,-0.0064 0.0086,-0.0097 0.0053,-0.0061 0.01006,-0.01281 0.01601,-0.01834 0.0041,-0.0038 -0.01421,0.01754 -0.01053,0.01326 0.105662,-0.124259 0.02947,-0.03695 0.10472,-0.122561 0.09014,-0.102917 0.182478,-0.203969 0.275489,-0.304286 0.06873,-0.07086 0.135136,-0.143754 0.200494,-0.217723 0.0064,-0.0075 0.0098,-0.02553 0.01926,-0.02254 0.0093,0.0029 -0.01233,0.01519 -0.01852,0.02278 0.06341,0.01542 0.12682,0.03086 0.190228,0.0463 0.0064,0.0016 -0.02787,0.04152 -0.02289,0.04173 -0.06563,0.09614 -0.129431,0.19354 -0.196683,0.288631 -0.07319,0.112392 -0.147608,0.223697 -0.224433,0.33364 -0.04682,0.0673 -0.09228,0.135916 -0.137906,0.203742 -0.171283,-0.09454 -0.109969,-0.123994 -0.179491,-0.04159 -0.0053,0.0063 0.01013,-0.01288 0.01474,-0.01966 0.02989,-0.04393 0.05793,-0.08922 0.09196,-0.130251 0.08775,-0.109906 0.169402,-0.224682 0.259056,-0.333127 0.06026,-0.07315 0.123629,-0.144155 0.17717,-0.222538 0.04807,-0.04626 -0.01241,0.0051 0.118486,0.08992 0.0094,0.0061 0.02093,-0.0093 0.03208,-0.0096 0.0074,-2.17e-4 -0.04948,0.03986 -0.0482,0.04603 -0.08017,0.08791 -0.152434,0.183518 -0.228182,0.275947 -0.06771,0.07652 -0.129778,0.158589 -0.194252,0.237803 -0.0028,0.0034 0.0055,-0.0067 0.0082,-0.01013 -0.04823,0.110178 -0.221356,0.03439 -0.173128,-0.07578 z"
         id="path929"
         style="opacity:1;vector-effect:none;fill:#1a1a1a;fill-opacity:1;fill-rule:nonzero;stroke:none;stroke-width:0.19462417;stroke-linecap:round;stroke-linejoin:round;stroke-miterlimit:4;stroke-dasharray:none;stroke-dashoffset:0;stroke-opacity:1;paint-order:markers fill stroke" />
      <path
         inkscape:connector-curvature="0"
         d="m 45.643066,83.308584 c 0.04599,0.07375 0.104396,0.135285 0.174792,0.185672 0.06018,0.03603 0.117125,0.04071 0.181318,0.01638 0.06921,-0.02949 0.113314,-0.08507 0.160171,-0.141404 -0.0026,0.0024 -0.0097,0.01013 -0.0079,0.0071 0.03332,-0.05702 0.06447,-0.111392 0.09252,-0.171563 0.04496,-0.144111 0.214966,-0.132136 0.218363,0.02185 -0.0041,0.07262 -0.02984,0.141396 -0.05837,0.207542 -0.04113,0.10096 -0.110289,0.182639 -0.183028,0.261961 -0.07075,0.07118 -0.15666,0.111771 -0.253093,0.134094 -0.111725,0.0173 -0.211444,-0.02077 -0.303741,-0.0802 -0.07606,-0.04875 -0.140325,-0.113536 -0.195972,-0.184195 -0.05459,-0.07436 -0.08242,-0.158983 -0.08926,-0.250084 0.0031,-0.07764 0.04066,-0.192432 0.137131,-0.192966 0.0186,-1.04e-4 0.03648,0.0073 0.05472,0.01093 0.0588,0.03612 0.08332,0.09756 0.110977,0.157612 0.02262,0.06592 0.06219,0.119118 0.109445,0.169088 0.04631,0.04398 0.100536,0.08156 0.16569,0.086 0.05847,0.0042 0.112564,-0.02096 0.161084,-0.05125 -0.01564,0.03701 0.173574,-0.167044 0.127963,-0.125309 0.05125,-0.06414 0.07976,-0.140145 0.101838,-0.218186 0.0091,-0.0016 0.01296,-0.137311 0.01352,-0.137396 0.0048,-7.93e-4 0.0024,0.0093 0.0037,0.014 0.01958,0.0713 0.156292,0.0566 0.165053,-0.01344 2.64e-4,-0.0028 -0.0013,0.0055 -0.0013,0.0083 -7.94e-4,0.01834 -3.2e-5,0.01892 0.0021,0.03509 0.01199,0.06133 0.03893,0.117859 0.06969,0.171736 0.0429,0.07323 0.101603,0.133252 0.171087,0.181155 0.06344,0.0364 0.122902,0.03177 0.189402,0.0092 0.07411,-0.02987 0.133779,-0.08492 0.190249,-0.139978 0.02508,-0.02702 0.05474,-0.07951 0.08111,-0.14933 0.01471,-0.04107 0.02447,-0.08349 0.03067,-0.126373 0.170116,0.115731 0.07351,0.107407 0.153551,0.04886 0.0067,-0.0049 -0.01029,0.01318 -0.01553,0.01969 -0.01577,0.01963 -0.03014,0.03987 -0.04436,0.06067 -0.03741,0.05837 -0.07861,0.114181 -0.12237,0.16792 -0.05775,0.06835 -0.09799,0.131342 -0.21097,0.188862 -0.08702,0.04052 -0.181867,0.03779 -0.274085,0.02082 -0.09654,-0.01566 -0.178422,-0.06591 -0.258567,-0.11861 -0.08324,-0.05535 -0.140239,-0.133117 -0.179109,-0.223864 -0.0259,-0.08759 -0.02556,-0.160848 0.05671,-0.222652 0.01333,-0.01003 0.03267,-0.0068 0.04901,-0.01019 0.07671,0.01013 0.109997,0.06405 0.148915,0.1227 0.03153,0.05782 0.06443,0.113673 0.102455,0.167481 0.03852,0.05369 0.08361,0.0951 0.145899,0.117179 0.06091,0.01214 0.118615,-7.94e-4 0.174135,-0.0263 0.01839,0.0035 0.152175,-0.133765 0.0968,-0.07988 0.05069,-0.05886 0.0808,-0.130328 0.114413,-0.199379 0.06018,-0.140132 -0.0098,-0.115793 0.214583,-0.03786 -0.01876,0.07628 -0.05469,0.146325 -0.09588,0.212643 -0.06124,0.09758 -0.152021,0.163824 -0.239641,0.234394 -0.07672,0.05968 -0.164901,0.09827 -0.259704,0.117248 -0.112051,0.01352 -0.20759,-0.02956 -0.296818,-0.09237 -0.0724,-0.06085 -0.134837,-0.133159 -0.18157,-0.215357 -0.02291,-0.05303 -0.01331,-0.02585 -0.02879,-0.08152 -0.03956,-0.113578 0.138906,-0.175744 0.178469,-0.06217 v 0 c 0.0024,0.02707 -2.65e-4,0.01262 0.01024,0.04299 0.03113,0.06359 0.08192,0.115636 0.133202,0.163507 0.05279,0.0378 0.107694,0.06767 0.175004,0.05622 0.07128,-0.01863 0.135413,-0.05388 0.192219,-0.100793 0.05808,-0.04535 0.115438,-0.09799 0.138359,-0.122682 0.03659,-0.04994 0.06868,-0.104479 0.0863,-0.164148 0.237214,0.0057 0.203641,-0.04912 0.158932,0.08896 -0.03729,0.07959 -0.07131,0.161888 -0.124637,0.232452 -0.06858,0.08161 -0.138229,0.154662 -0.239824,0.194077 -0.09415,0.03048 -0.189291,0.04353 -0.285477,0.01135 -0.08839,-0.03733 -0.15925,-0.09405 -0.21539,-0.172511 -0.03862,-0.05477 -0.07537,-0.109908 -0.104616,-0.170312 -0.0095,-0.014 -0.01818,-0.03345 -0.02932,-0.04666 -0.0037,-0.0044 -0.01574,-0.008 -0.01206,-0.01241 0.01008,-0.01212 0.03537,0.04794 0.04571,0.01214 0.09789,-0.02371 0.05868,-0.124385 0.06146,-0.04054 0.02085,0.0636 0.06172,0.114874 0.117094,0.152537 0.06262,0.04112 0.125425,0.08157 0.201456,0.09207 0.05848,0.0094 0.11752,0.01042 0.170521,-0.01979 0.07766,-0.04834 0.03971,-0.02466 0.104058,-0.09802 0.0052,-0.0059 -0.0096,0.01254 -0.01442,0.01881 0.03875,-0.05108 0.08129,-0.099 0.116838,-0.152517 0.01815,-0.03101 0.09273,-0.160411 0.124873,-0.161663 0.05304,-0.0021 0.09893,0.03853 0.148394,0.0578 0.0041,0.06134 -0.01267,0.121018 -0.02945,0.179353 -0.03666,0.112649 -0.08878,0.214188 -0.180052,0.294008 -0.07737,0.06912 -0.160591,0.13276 -0.262143,0.16135 -0.112231,0.02511 -0.217541,0.01839 -0.317289,-0.04448 -0.08702,-0.06205 -0.162576,-0.136946 -0.217477,-0.229529 -0.04,-0.06873 -0.07471,-0.140719 -0.09228,-0.218765 -0.0051,-0.02442 -0.02741,-0.131422 -0.0013,-0.148373 0.144108,-0.09371 0.126572,-0.08784 0.188609,-0.01495 0.02016,0.06783 0.0064,0.140184 -0.0016,0.209536 -0.02445,0.09835 -0.05654,0.194877 -0.115345,0.278707 -0.07281,0.09035 -0.146092,0.180883 -0.250788,0.236035 -0.08216,0.04004 -0.168852,0.06681 -0.261305,0.05249 -0.09732,-0.01998 -0.1822,-0.06479 -0.252458,-0.136189 -0.05823,-0.06162 -0.110836,-0.127611 -0.139345,-0.208722 -0.0062,-0.01315 -0.07092,-0.115395 -0.01884,-0.07605 0.09983,0.0096 0.09939,-0.09227 0.06671,-0.02498 -0.0057,0.05843 0.01704,0.112935 0.04822,0.161478 0.04334,0.05814 0.09641,0.109728 0.157393,0.149156 0.05527,0.03662 0.114983,0.06179 0.18247,0.04787 0.06787,-0.01945 0.124677,-0.05686 0.172685,-0.108985 -0.0039,0.0055 -0.01688,0.02106 -0.01177,0.01662 0.04497,-0.03917 0.07353,-0.09932 0.103995,-0.149206 0.02138,-0.04837 0.04315,-0.09637 0.05713,-0.147347 0.0043,-0.04292 0.0476,0.02511 0.08856,0.03761 0.03695,0.01127 0.06068,-0.03755 0.07436,-0.05622 0.0029,-0.004 -0.0064,0.0075 -0.0096,0.0113 -0.05103,0.09761 -0.08333,0.203737 -0.166307,0.28225 -0.0688,0.07601 -0.144441,0.141515 -0.245054,0.170958 -0.111573,0.02453 -0.214951,0.01029 -0.312301,-0.05307 -0.08436,-0.06211 -0.15733,-0.135189 -0.2134,-0.224358 -0.07175,-0.09652 0.07992,-0.209273 0.151672,-0.112747 z"
         id="path933"
         style="opacity:1;vector-effect:none;fill:#1a1a1a;fill-opacity:1;fill-rule:nonzero;stroke:none;stroke-width:0.19462417;stroke-linecap:round;stroke-linejoin:round;stroke-miterlimit:4;stroke-dasharray:none;stroke-dashoffset:0;stroke-opacity:1;paint-order:markers fill stroke" />
    </g>
    <g
       id="g970"
       transform="matrix(5.1381078,0,0,5.1381078,-165.86734,-317.52211)"
       style="stroke-width:0.19462417"
       inkscape:export-filename="../Assets/Sprites\evil.png"
       inkscape:export-xdpi="96"
       inkscape:export-ydpi="96">
      <path
         transform="scale(0.26458333)"
         inkscape:connector-curvature="0"
         id="path947"
         d="m 260.63094,292.91747 c -1.31385,0.0182 -0.54283,1.80628 -1.83106,1.92522 -1.21872,0.41384 -1.09134,2.11744 0.0656,2.42467 -1.44952,2.13607 -3.45926,4.4291 -3.37263,7.15471 0.38847,1.2943 2.12067,-0.0492 2.55511,0.62779 -0.65118,2.26581 -1.19627,4.76736 -2.244,6.81292 -1.07629,0.33574 -1.76451,1.96548 -3.05106,0.82868 -1.25463,-0.38479 -2.02265,-3.13177 -3.51702,-1.62876 -0.62365,0.59768 -0.57514,2.69071 -1.86663,1.51158 -1.52554,-1.29542 -3.614,-0.65706 -5.31111,-0.91448 -1.71074,-1.21831 -3.46133,0.87785 -5.04952,0.93959 -1.33572,-1.02809 -3.19605,-2.32319 -3.57283,-3.93973 2.12702,-0.93161 0.20515,-3.13039 -0.95005,-3.90695 0.82902,-0.77225 2.48574,-1.94618 0.84083,-2.89603 -1.09652,-0.66021 -0.48576,-1.72611 0.13364,-2.38857 0.071,-1.70772 -2.35567,-2.08569 -3.50118,-2.66177 -1.2012,0.34191 -1.72197,2.22263 -3.30337,2.03328 -1.45528,0.34941 -3.72531,0.0194 -4.46987,1.57994 -0.34142,1.31629 1.97863,0.55384 1.16839,1.64132 -0.98565,1.97225 -3.18693,3.58095 -2.97084,5.97168 1.59305,1.10423 2.65483,-1.89451 4.13365,-2.00335 -2.4638,4.0293 -4.25039,8.87397 -3.66204,13.62989 1.50181,1.33883 2.34662,-1.89877 3.41232,-2.56613 0.74859,-0.71219 1.99528,-2.17197 2.72112,-2.20215 -0.13633,1.08826 -1.86659,3.28185 0.0963,3.59794 0.87392,-0.35499 1.8163,-0.88108 1.44113,0.63407 0.20156,2.32815 -0.74167,4.90876 0.13253,7.10867 1.71719,0.91946 2.18455,-1.99676 3.15848,-2.85644 0.3972,-0.70751 1.28326,-1.82533 1.53251,-0.35017 0.96931,2.15518 0.92263,4.74378 2.0375,6.75161 1.77798,0.63636 1.56327,-2.23383 2.18148,-3.31149 0.32985,-0.86777 0.90168,-2.87222 2.0652,-2.32823 0.63172,1.51624 2.52863,0.34132 2.29492,-1.00865 -0.31158,-1.19193 0.80833,-2.34439 1.9594,-1.64412 1.05795,0.0605 2.27711,-0.0291 2.53628,1.34627 1.22332,2.0058 1.93118,4.51009 3.49539,6.27441 1.98522,-0.40253 0.37043,-3.01278 0.76172,-4.47684 -0.0445,-0.97956 0.35329,-2.03806 1.46694,-1.90709 0.71017,-0.21626 1.07165,-1.55362 1.79059,-0.44015 1.19805,1.54131 1.62332,3.62864 2.97643,5 1.93021,-0.46016 0.731,-3.21862 1.45926,-4.72377 0.37217,-1.50907 1.78837,0.72206 2.06822,1.29952 0.25452,1.39365 2.47771,1.29131 2.04729,-0.25321 -0.0491,-1.08134 -1.65209,-3.14526 0.286,-3.41727 0.94368,-0.0855 3.05384,0.69429 2.62346,-1.08886 -0.3999,-1.12455 -1.9024,-2.18405 -1.76339,-3.33706 1.5842,-0.16096 3.11147,2.38207 4.53474,1.01005 0.11946,-2.23107 -1.27239,-4.4252 -1.53809,-6.64412 -0.0947,-0.55351 -0.6733,-2.05834 0.47154,-1.34765 1.24084,0.31758 2.35134,2.67157 3.68513,1.39509 -0.14275,-2.32757 -1.95543,-4.39442 -2.70111,-6.56244 -0.30653,-1.43017 -2.06873,-3.09585 -1.18003,-4.5334 0.9882,0.0368 2.37266,-0.76924 1.37765,-1.83455 -1.9428,-2.19473 -4.7997,-3.75195 -7.65485,-4.32547 z"
         style="opacity:1;vector-effect:none;fill:#b1975e;fill-opacity:1;fill-rule:nonzero;stroke:none;stroke-width:0.73558748;stroke-linecap:round;stroke-linejoin:round;stroke-miterlimit:4;stroke-dasharray:none;stroke-dashoffset:0;stroke-opacity:1;paint-order:markers fill stroke" />
      <path
         inkscape:export-ydpi="96"
         inkscape:export-xdpi="96"
         inkscape:export-filename="../Assets/Sprites\evil.png"
         inkscape:connector-curvature="0"
         id="path943"
         d="m 68.155012,76.731232 c -0.58466,0.448194 0.83479,1.098915 -0.06655,1.265833 -0.549553,0.150191 -0.547738,0.803214 0.0763,0.720788 -0.196924,0.254405 -0.685525,0.970857 -0.735814,1.537738 0.0024,0.319151 -0.464913,1.325035 0.160314,1.075443 0.126052,-0.266824 0.656616,-0.66658 0.32554,-0.120726 -0.148066,0.419314 -0.184454,0.753261 -0.572143,0.925245 -0.09307,0.487799 -0.308705,0.630272 -0.643371,0.200507 -0.390684,-0.676574 -1.122045,-0.281041 -1.143736,0.231071 -0.404336,-0.470834 -1.018685,-0.286062 -1.470575,-0.26828 -0.514273,-0.69243 -1.073835,0.526148 -1.509985,0.06925 0.333272,-0.291947 -1.106191,-0.631973 -0.344167,-0.581361 0.864153,-0.07104 -0.39768,-1.00574 -0.250058,-1.051753 0.35936,0.0899 1.104622,0.730012 1.028306,0.0637 -0.384731,-0.430043 -0.844026,-0.917927 -1.27744,-1.212845 0.63423,0.02957 0.946105,-0.55609 0.212905,-0.763262 -0.71342,-0.236516 -1.252982,-0.887383 -2.018986,-0.958472 -0.581964,0.309801 0.7502,0.879102 -0.02535,0.696474 -0.37276,0.07717 -0.03259,0.469008 -0.50986,0.373028 -0.717076,0.194516 -1.443521,0.532445 -1.944071,1.094211 -0.327493,1.003318 1.799027,-0.492141 1.055926,0.390617 -0.259842,0.393642 -0.765416,1.544484 0.0035,1.545347 0.437695,-0.38681 -0.164502,0.569134 -0.121136,0.835602 -0.201375,0.77707 -0.256268,1.595532 -0.148384,2.388695 0.547045,0.312764 0.702924,-0.755055 1.103135,-1.016947 0.185113,-0.211744 0.397105,-0.491615 0.211931,-0.03054 -0.342167,0.481574 0.188569,1.033373 0.53376,0.431832 0.424969,-0.43152 0.0076,0.857811 0.1206,1.208299 0.0021,0.37601 -0.125378,1.497285 0.491027,1.149504 0.337838,-0.457076 0.56891,-0.989865 0.897998,-1.449139 0.169789,0.84809 0.38471,1.694667 0.717815,2.492605 0.640456,0.243684 0.450715,-1.010909 0.700185,-1.409983 0.101053,-0.273939 0.224804,-1.020112 0.410554,-0.374378 0.145675,0.359413 0.446815,1.449092 0.762572,0.681287 -0.02093,-0.487117 -0.142732,-1.460522 0.155175,-1.637967 0.467305,0.411811 0.459116,1.359805 0.927079,1.599578 0.582602,-0.01376 -0.319056,-1.030959 -0.08482,-1.032068 0.329567,0.630026 0.593145,1.295665 0.936656,1.916393 0.742651,0.321429 0.368652,-0.987478 0.418542,-1.416225 -0.0095,-0.313928 -0.02789,-0.689184 0.07653,-0.154543 -0.04768,0.501372 0.627062,1.087811 0.602877,0.288822 -0.05163,-0.343911 -0.210093,-1.300509 0.115149,-0.519612 0.314314,0.541483 0.546539,1.144894 0.939969,1.632299 0.64447,-0.27137 -5.29e-4,-1.164257 0.195739,-1.726092 0.03809,-0.795475 0.555839,0.59676 0.857493,0.853102 0.160639,0.557596 1.049298,0.608332 0.696402,-0.10491 -0.162316,-0.56591 -0.408945,-1.106834 -0.566888,-1.671733 0.545378,-0.162528 1.157332,0.859801 1.515422,0.474266 0.10341,-0.476568 -0.846296,-1.2665 -0.747488,-1.432984 0.378691,0.397569 1.356437,0.680644 0.985872,-0.202049 -0.145968,-0.600715 -0.348324,-1.185709 -0.502721,-1.783757 0.36766,0.217509 1.0697,1.319429 1.38803,0.585494 -0.199988,-0.989978 -0.819396,-1.831173 -1.208016,-2.753294 -0.31578,-0.352811 -0.209147,-0.74671 0.282914,-0.464756 0.419944,0.044 0.764712,1.004916 1.08322,0.390977 -0.403154,-0.432104 -0.798155,-0.885005 -1.215541,-1.314511 -0.513982,-0.539208 -1.179504,-0.898075 -1.896671,-1.082191 -0.385916,-0.102647 -0.617093,-0.471569 -0.985718,-0.583623 z m -0.06511,0.356568 c 0.01024,-0.01098 0.04721,0.02708 0,0 z m 0.644922,0.452168 c 0.597519,0.280228 1.288224,0.386363 1.770073,0.881917 0.22643,0.229532 0.726064,0.536162 0.135236,0.461153 -0.758306,0.416827 0.10242,1.260864 0.272743,1.817344 0.17195,0.418692 0.790721,1.403445 0.635376,1.489897 -0.324858,-0.205409 -1.062836,-1.260583 -1.255384,-0.454699 0.107114,0.731776 0.408376,1.417859 0.560173,2.140952 -0.320831,-0.196122 -1.362663,-0.972655 -1.32085,-0.177765 0.238016,0.364291 0.515138,0.701916 0.753959,1.066083 -0.452099,-0.460941 -1.543447,-0.261991 -1.110567,0.522367 0.07198,0.245456 0.440782,1.08921 0.289721,0.920919 -0.376833,-0.371755 -0.478708,-1.157833 -1.071052,-1.215909 -0.498446,0.251045 -0.183502,1.488208 -0.358442,1.442395 -0.382174,-0.438214 -0.512116,-1.618882 -1.195239,-1.48477 -0.118396,0.467669 -0.05062,0.332211 -0.440399,0.247293 -0.451101,0.397237 -0.160546,1.117682 -0.217442,1.653254 0.02658,0.408101 -0.287428,-0.536909 -0.418455,-0.718537 -0.278738,-0.35473 -0.49182,-1.637525 -1.050396,-1.121032 -0.171741,-0.28685 -0.909658,-0.298794 -0.870029,0.311394 -0.104391,0.261969 0.02196,1.069125 -0.206391,0.448252 -0.469064,-0.754119 -0.923179,0.212082 -0.97876,0.688768 -0.115604,0.299752 -0.186938,1.172472 -0.330758,0.439272 -0.195307,-0.538721 -0.240228,-1.121439 -0.433014,-1.657199 -0.514663,-0.601903 -0.850347,0.531233 -1.112364,0.865198 -0.153739,0.335161 -0.256175,0.38096 -0.208106,-0.0406 -0.0013,-0.624877 0.02961,-1.251114 0.115009,-1.868469 -0.06617,-0.761135 -1.060127,0.444486 -0.689665,-0.271878 0.20465,-0.258707 0.469979,-1.087684 -0.08925,-0.784908 -0.560324,0.368009 -0.971111,0.921639 -1.345136,1.468128 -0.04039,-1.065829 0.183652,-2.166919 0.71029,-3.098903 0.09742,-0.190611 0.662503,-0.604689 0.153852,-0.751218 -0.403997,-0.01458 -0.848352,0.785802 -0.93268,0.627176 -0.03409,-0.767321 1.004615,-1.138214 0.843685,-1.822741 -0.320201,0.0155 -1.53698,0.470186 -0.735946,0.06374 0.513511,-0.298643 1.111829,-0.42104 1.699611,-0.357378 0.05544,-0.287012 0.650957,-0.291397 0.382506,-0.700101 0.22687,0.264806 1.114756,0.465436 0.99056,0.639162 -0.803862,0.341111 0.05904,0.882835 0.414004,1.166929 -0.459295,-0.334957 -1.135732,0.184941 -0.509373,0.563599 0.284784,0.282845 0.563213,0.466662 0.05273,0.588682 -0.287644,0.510294 0.495266,0.888289 0.807043,1.23643 0.624009,0.5315 1.071057,-0.744172 1.63467,-0.0495 0.491688,-0.09262 0.992523,-0.196945 1.41547,0.240761 0.651696,0.325188 0.367324,-1.145133 0.887958,-0.400741 0.319969,0.447363 1.144913,0.772509 1.209363,-0.05016 0.426294,0.692563 0.413096,-0.62026 0.566166,-0.882192 0.213513,-0.433088 0.707133,-1.410359 -0.220197,-1.086781 -0.417809,0.216612 0.03205,-0.674643 0.08395,-0.926185 0.183483,-0.451815 1.249254,-1.103913 0.207769,-1.264277 0.318228,-0.205338 1.022239,-0.295333 0.507982,-0.805119 z m -0.204124,0.37052 c 0.08484,0.05496 -0.05413,0.08087 0,0 z m -8.580871,0.323495 c 0.131395,-0.01638 0.01495,0.04042 0,0 z m 8.033102,0.291973 -0.03669,0.05168 z m -7.608837,0.249079 0.01521,0.05255 z m 10.352338,0.427882 c -0.07551,0.165859 -0.03864,0.01926 0,0 z m -8.99015,0.345715 c -0.0386,0.101732 -0.08991,-0.02524 0,0 z m -0.06097,0.918289 c 0.04179,0.0046 0.03029,0.125429 0,0 z m 0.670758,0.952397 c 0.131199,0.0176 -0.07164,0.0051 0,0 z m 8.336441,0.218591 c -0.0031,0.102568 -0.04337,7.94e-4 0,0 z m -8.815998,0.05891 c 0.08353,0.03712 0.04249,0.08452 0,0 z m 0.05168,0.08372 c -0.01304,0.04849 -0.09444,0.02212 0,0 z m 4.103111,0.518313 c 0.11557,-0.03169 -0.03061,0.109958 0,0 z m 5.826517,0.135909 c 0.124608,0.0305 -0.005,0.01558 0,0 z m -6.235277,0.201538 c 0.01095,0.03695 -0.09412,0.137216 0,0 z m 1.520836,0.04806 c 0.004,0.03934 -0.120402,0.139184 0,0 z m 2.721281,0.816488 0.01963,0.03359 z m 1.247469,0.502812 c 0.07837,0.01804 -0.01151,0.01066 0,0 z m -11.274764,0.551386 5.29e-4,0.0047 z m 9.655225,0.28112 c -0.01656,0.131199 -0.0598,-0.01574 0,0 z m -2.892848,0.625803 c -0.05519,0.127339 -0.02331,-0.0076 0,0 z M 63.3243,85.777709 c -0.117769,0.163156 -0.04045,0.01826 0,0 z m -2.701645,0.960147 c 0.01117,0.0061 0.01638,0.03785 0,0 z m 9.304859,0.05943 c 0.02993,-0.01939 0.03608,0.0584 0,0 z"
         style="opacity:1;vector-effect:none;fill:#59412b;fill-opacity:1;fill-rule:nonzero;stroke:none;stroke-width:0.19462417;stroke-linecap:round;stroke-linejoin:round;stroke-miterlimit:4;stroke-dasharray:none;stroke-dashoffset:0;stroke-opacity:1;paint-order:markers fill stroke" />
      <path
         inkscape:connector-curvature="0"
         d="m 63.216215,77.770759 c 0.01958,0.126209 0.07302,0.241877 0.129527,0.355065 0.105405,0.206595 0.2634,0.376354 0.434316,0.530109 0.23804,0.203859 0.492689,0.289629 0.795584,0.34512 0.35656,0.04802 0.636614,-0.02875 0.95645,-0.178163 0.266012,-0.143832 0.492879,-0.345739 0.663223,-0.595283 0.134374,-0.192058 0.224835,-0.406397 0.264925,-0.636722 0.0058,-0.0788 0.01905,-0.163013 -0.01302,-0.237946 -0.05735,-0.105716 0.108765,-0.195836 0.166116,-0.09012 v 0 c 0.04606,0.103325 0.0477,0.211674 0.03583,0.323352 -0.03888,0.254834 -0.131813,0.4933 -0.27682,0.707589 -0.04218,0.0566 -0.08242,0.114699 -0.126548,0.169793 -0.182147,0.22742 -0.413822,0.40947 -0.671677,0.543592 -0.357079,0.158306 -0.657113,0.231791 -1.050469,0.175604 -0.3351,-0.065 -0.605349,-0.16065 -0.869244,-0.385646 -0.184859,-0.166997 -0.355899,-0.350917 -0.470903,-0.574344 -0.06454,-0.127926 -0.124624,-0.258599 -0.149256,-0.400966 -0.03248,-0.115803 0.149486,-0.166838 0.181964,-0.05103 z"
         id="path949"
         style="opacity:1;vector-effect:none;fill:#1a1a1a;fill-opacity:1;fill-rule:nonzero;stroke:none;stroke-width:0.19462417;stroke-linecap:round;stroke-linejoin:round;stroke-miterlimit:4;stroke-dasharray:none;stroke-dashoffset:0;stroke-opacity:1;paint-order:markers fill stroke" />
      <path
         inkscape:connector-curvature="0"
         d="m 63.678471,78.946329 c -0.04083,0.10641 -0.074,0.215027 -0.09968,0.326009 -0.02982,0.124082 -0.03913,0.250486 -0.04055,0.377603 0.0016,0.09995 0.02402,0.197834 0.05931,0.290944 0.01638,0.03478 0.03498,0.07268 0.07278,0.04736 0.04046,-0.05606 0.03949,-0.05745 0.07492,-0.131371 0.05168,-0.120283 0.08391,-0.24606 0.101418,-0.375415 0.01672,-0.125145 0.02061,-0.249745 0.0053,-0.374944 -0.01614,-0.06867 -0.02085,-0.153516 -0.07799,-0.202644 -0.04035,-0.01741 -0.0042,-0.0011 -0.01836,0.03455 0.0057,-0.006 0.01738,-0.0263 0.01704,-0.01802 -5.3e-4,0.01138 -0.01209,0.01931 -0.01749,0.02934 -0.0059,0.01095 -0.01119,0.02225 -0.01638,0.03358 -0.02011,0.04411 -0.03654,0.08906 -0.05188,0.135003 -0.03363,0.1093 -0.04851,0.222978 -0.06092,0.336283 -0.01169,0.107096 -0.0195,0.214339 -0.0082,0.321702 0.0089,0.02066 0.0082,0.07998 0.0354,0.09166 0.0058,0.0024 -0.0064,-0.01111 -0.0109,-0.01561 -0.02954,0.0062 -0.0092,-0.02813 -0.01474,-0.0249 -0.0091,0.0053 -0.01225,0.02421 -0.02254,0.02207 -0.0093,-0.0019 0.01156,-0.01519 0.01654,-0.02331 0.0057,-0.0093 0.01027,-0.01929 0.0154,-0.02894 0.03868,-0.08957 0.05416,-0.187034 0.06186,-0.283663 0.0079,-0.108354 -0.0024,-0.215653 -0.02376,-0.321746 -0.03041,-0.128627 -0.07031,-0.08763 0.01947,-0.06232 0.03758,0.0034 0.0066,0.0056 0.05033,-0.03492 0.0037,-0.0034 -0.005,0.0088 -0.0068,0.01341 -0.014,0.03555 -0.02352,0.07273 -0.03312,0.109617 -0.0223,0.09621 -0.0341,0.194072 -0.03467,0.292724 0.0027,0.03194 0.0021,0.06769 0.01889,0.09651 0.003,0.0051 0.01709,0.01569 0.0084,10e-5 -0.01548,-0.01318 -0.01336,-0.01045 -0.0051,-0.02688 0.03019,-0.05959 -0.05657,0.07347 0.0057,-0.02723 0.04157,-0.0745 0.0666,-0.157022 0.08042,-0.240879 0.0083,-0.07567 0.01082,-0.15194 -0.0016,-0.227206 -0.0073,-0.02701 0.02119,0.04331 0.06684,0.04103 0.0943,-0.0047 0.09863,-0.08767 0.0767,-0.03178 -0.01781,0.06444 -0.0278,0.130371 -0.03308,0.196895 -0.0081,0.07214 -0.0039,0.142798 0.01281,0.213146 0.0029,0.0083 0.0058,0.01664 0.0088,0.02495 0.05197,0.108463 -0.118461,0.19013 -0.170431,0.08167 v 0 c -0.0052,-0.0136 -0.01032,-0.0272 -0.01548,-0.0408 -0.02186,-0.08557 -0.03353,-0.171577 -0.02368,-0.260093 0.0048,-0.07835 0.01492,-0.155033 0.03279,-0.231489 0.0021,-0.0086 0.01535,-0.06366 0.02132,-0.06924 0.08906,-0.08319 0.163169,-0.109146 0.203473,0.0182 0.01852,0.09124 0.01905,0.183552 0.01048,0.276138 -0.01228,0.104894 -0.04189,0.206973 -0.08776,0.302315 -0.05686,0.09879 -0.121102,0.195297 -0.247009,0.178779 -0.104519,-0.04396 -0.144397,-0.133331 -0.149027,-0.244006 -0.0013,-0.1113 0.0089,-0.221454 0.03241,-0.330476 0.02344,-0.100475 0.04292,-0.216942 0.145166,-0.266509 0.02101,-5.29e-4 0.04251,-0.0061 0.06299,-0.0016 0.08513,0.01939 0.107839,0.119722 0.129916,0.189442 0.02543,0.119356 0.04026,0.239919 0.03263,0.362299 -0.0058,0.11588 -0.02418,0.231823 -0.0646,0.341072 -0.04206,0.09897 -0.106743,0.20474 -0.226671,0.200599 -0.100928,-0.03257 -0.14107,-0.110625 -0.160568,-0.211497 -0.01558,-0.118563 -0.01085,-0.237189 0.0026,-0.355883 0.01246,-0.123592 0.02758,-0.247499 0.06126,-0.367417 0.03425,-0.114114 0.07503,-0.227041 0.152392,-0.31969 0.08314,-0.07697 0.160171,-0.08469 0.251859,-0.01519 0.0805,0.08015 0.112948,0.181274 0.131527,0.291819 0.01855,0.138046 0.01937,0.275132 7.94e-4,0.413578 -0.01699,0.144751 -0.04937,0.285253 -0.104407,0.420712 -0.05139,0.122621 -0.122753,0.248382 -0.25948,0.28535 -0.114387,0.0066 -0.196162,-0.04642 -0.243181,-0.152236 -0.04388,-0.110643 -0.07246,-0.227166 -0.0769,-0.346546 2.65e-4,-0.137943 0.0072,-0.275346 0.03844,-0.410358 0.02537,-0.118388 0.05846,-0.234307 0.101407,-0.347594 0.01643,-0.119142 0.203652,-0.09331 0.187213,0.02582 z"
         id="path951"
         style="opacity:1;vector-effect:none;fill:#1a1a1a;fill-opacity:1;fill-rule:nonzero;stroke:none;stroke-width:0.19462417;stroke-linecap:round;stroke-linejoin:round;stroke-miterlimit:4;stroke-dasharray:none;stroke-dashoffset:0;stroke-opacity:1;paint-order:markers fill stroke" />
      <path
         inkscape:connector-curvature="0"
         d="m 65.845872,79.005866 c -0.0145,0.01056 -0.06038,0.09929 -0.0837,0.164213 -0.03576,0.101113 -0.04095,0.206436 -0.03556,0.312383 0.01267,0.06877 0.01505,0.16233 0.0704,0.213119 0.01966,0.01042 0.0098,-0.0053 0.01373,-0.015 0.004,-0.0098 0.01238,-0.01725 0.01823,-0.02612 -0.0077,0.0074 -0.01286,0.01905 -0.02307,0.02212 -0.0044,0.0013 0.009,-0.0035 0.02657,-0.04729 0.01617,-0.0403 0.02643,-0.08283 0.03624,-0.124976 0.01955,-0.106529 0.02588,-0.214704 0.02275,-0.322786 -0.0053,-0.08394 -0.0061,-0.173244 -0.04617,-0.249233 0.02228,0.0088 -0.02056,-0.01873 -0.01596,-0.01349 0.03606,0.04089 0.04887,0.02719 0.08038,-0.0019 -0.04212,0.07219 -0.04917,0.159993 -0.05956,0.241363 -0.01209,0.119547 -0.02199,0.239676 -0.02164,0.359894 0.0031,0.09847 0.0057,0.196903 0.03299,0.29205 0.02821,0.06261 0.03293,0.03112 -0.01757,0.01328 1.67e-4,-0.0037 0.0039,-0.01286 5.29e-4,-0.01122 -0.0084,0.0041 -0.01588,0.02906 -0.01942,0.02037 -0.0041,-0.01 0.01146,-0.01834 0.01632,-0.02797 0.02135,-0.04221 0.03388,-0.08798 0.04781,-0.132953 0.04177,-0.127672 0.05452,-0.260392 0.06117,-0.393671 0.0073,-0.125158 5.29e-4,-0.250124 -0.03088,-0.371594 -0.0066,-0.03143 -0.04904,-0.06579 -0.0082,-0.0204 -2.64e-4,0.0038 -0.0044,0.01294 -0.0011,0.01135 0.0098,-0.0045 0.0131,-0.02106 0.02387,-0.02193 0.0049,-2.65e-4 -0.0089,0.0021 -0.02974,0.05181 -0.01368,0.03253 -0.01625,0.04749 -0.02558,0.0826 -0.02326,0.108884 -0.0367,0.220099 -0.04037,0.331351 -0.0011,0.08907 0.0072,0.178747 0.04356,0.260742 0.004,0.006 0.0076,0.01238 0.01212,0.01802 0.02323,0.02889 -0.0064,-0.01643 -0.0065,-0.01752 0.0013,-0.0037 0.0076,-0.01347 0.0042,-0.01122 -0.01085,0.0073 -0.01609,0.02228 -0.02813,0.02729 -0.0075,0.0031 0.0088,-0.01357 0.01243,-0.02077 0.0057,-0.01119 0.01082,-0.02273 0.01577,-0.0343 0.01601,-0.03747 0.01648,-0.04193 0.02946,-0.08156 0.03299,-0.102968 0.03785,-0.210828 0.03506,-0.318055 -0.0045,-0.08424 -0.0097,-0.1748 -0.06742,-0.240962 -0.029,-0.02704 -0.04932,0.0027 -0.07529,0.02096 -0.03901,0.04234 -0.05161,0.07226 -0.08367,0.153617 -0.03346,0.112798 -0.03714,0.230569 -0.02925,0.347097 0.0052,0.09498 0.03142,0.18525 0.08003,0.266858 0.02416,0.03542 0.05006,0.04591 0.08364,0.01939 0.05796,-0.05388 0.03259,-0.02869 0.07355,-0.09983 0.04222,-0.08103 0.05888,-0.171561 0.0739,-0.260781 0.01212,-0.07412 0.01857,-0.150514 -0.0091,-0.221666 -0.02024,-0.04051 -0.04993,-0.0452 -0.08982,-0.03364 -0.0292,-0.0034 -0.131685,0.116533 -0.09189,0.08484 -0.05357,0.08163 -0.06266,0.178785 -0.06629,0.273815 -6.9e-5,0.08867 0.02336,0.174379 0.05881,0.255003 -0.01183,0.01445 0.07775,0.08585 0.05179,0.05042 -0.01884,-0.03579 0.06465,-0.03699 -0.0099,-0.0095 -0.0072,0.0026 0.009,-0.01238 0.01283,-0.01902 0.0062,-0.01093 0.01151,-0.02238 0.01728,-0.03359 0.04438,-0.0806 0.05098,-0.170969 0.05781,-0.260763 5.29e-4,-0.06481 0.0042,-0.135083 -0.03041,-0.192752 -0.0035,-0.004 0.0343,0.03235 0.0406,0.02826 0.01265,-0.0082 0.02201,-0.02066 0.03302,-0.03099 -0.01717,0.0191 -0.02956,0.04125 -0.04179,0.0636 -0.02559,0.117517 -0.210252,0.0773 -0.184661,-0.04021 v 0 c 0.015,-0.03356 0.02992,-0.06723 0.05228,-0.09675 0.0208,-0.02249 0.0393,-0.0473 0.06236,-0.06743 0.06247,-0.05455 0.149553,-0.02013 0.194117,0.03673 0.0516,0.08593 0.06589,0.181208 0.06253,0.280686 -0.007,0.109202 -0.01257,0.220724 -0.06143,0.320876 -0.04543,0.09486 -0.101272,0.191781 -0.21412,0.209587 -0.09848,-0.0068 -0.162337,-0.06117 -0.207864,-0.147963 -0.04626,-0.101197 -0.07748,-0.208941 -0.08057,-0.320876 0.0024,-0.123235 0.01265,-0.248986 0.07423,-0.358745 0.07417,-0.103206 0.145568,-0.195387 0.279461,-0.214048 0.109214,-0.0031 0.198202,0.03581 0.250076,0.136826 0.0397,0.09721 0.04749,0.198448 0.02952,0.30216 -0.01611,0.106002 -0.03491,0.213074 -0.0794,0.311443 -0.0511,0.102505 -0.118761,0.200854 -0.230653,0.241443 -0.108395,0.02442 -0.201147,-0.0056 -0.26593,-0.09982 -0.06116,-0.101542 -0.100724,-0.212931 -0.108421,-0.332047 -0.0122,-0.138507 -0.008,-0.277635 0.02622,-0.413152 0.042,-0.122391 0.101283,-0.244806 0.219229,-0.31083 0.09574,-0.04358 0.190145,-0.04545 0.268184,0.03502 0.07827,0.09559 0.10909,0.208277 0.112011,0.331391 0.0059,0.123994 0.0019,0.249446 -0.03242,0.369588 -0.03058,0.106556 -0.06535,0.221057 -0.164242,0.284284 -0.09763,0.03847 -0.178094,0.0024 -0.228579,-0.08854 -0.04761,-0.102685 -0.06655,-0.212876 -0.06553,-0.326048 0.0011,-0.122542 0.01614,-0.244835 0.03863,-0.365242 0.02679,-0.118779 0.06218,-0.237836 0.177726,-0.300445 0.120018,-0.03057 0.184701,0.02585 0.227775,0.135604 0.03763,0.136295 0.05051,0.276368 0.04245,0.417711 -0.0061,0.146069 -0.01691,0.29191 -0.06051,0.432504 -0.03478,0.115284 -0.06348,0.237755 -0.167452,0.312589 -0.0182,0.0061 -0.03555,0.01582 -0.05457,0.01815 -0.08614,0.0105 -0.140367,-0.06664 -0.168278,-0.135583 -0.03364,-0.108617 -0.0425,-0.21985 -0.04494,-0.333246 -0.003,-0.127037 0.008,-0.253997 0.01929,-0.380465 0.01225,-0.108159 0.02487,-0.218265 0.07101,-0.318196 0.02193,-0.02529 0.04113,-0.05323 0.06577,-0.0759 0.06959,-0.06403 0.165079,-0.0073 0.207116,0.05648 0.05245,0.09719 0.06828,0.204975 0.07178,0.314618 0.0051,0.120394 2.4e-5,0.240567 -0.01947,0.359722 -0.02191,0.117118 -0.05097,0.230691 -0.140459,0.315344 -0.08155,0.06135 -0.171707,0.07738 -0.255196,0.0063 -0.07657,-0.08563 -0.107075,-0.193988 -0.120457,-0.306867 -0.0083,-0.125164 -0.0062,-0.250261 0.03266,-0.371012 0.03642,-0.116623 0.08634,-0.223329 0.177977,-0.308297 0.104473,-0.05959 0.198109,0.104571 0.09364,0.16416 z"
         id="path953"
         style="opacity:1;vector-effect:none;fill:#1a1a1a;fill-opacity:1;fill-rule:nonzero;stroke:none;stroke-width:0.19462417;stroke-linecap:round;stroke-linejoin:round;stroke-miterlimit:4;stroke-dasharray:none;stroke-dashoffset:0;stroke-opacity:1;paint-order:markers fill stroke" />
      <path
         inkscape:connector-curvature="0"
         d="m 64.162622,81.070203 c -0.0031,-0.124529 0.01667,-0.247166 0.04475,-0.367977 0.0371,-0.148405 0.103336,-0.28601 0.183111,-0.415692 0.08237,-0.128511 0.182776,-0.223531 0.333369,-0.252805 0.127212,-0.01114 0.230344,0.04591 0.327348,0.121076 0.09871,0.08276 0.167494,0.190876 0.226674,0.303684 0.05394,0.102187 0.0805,0.212204 0.09446,0.325935 0.02988,0.116501 -0.153189,0.163446 -0.183065,0.04694 v 0 c -0.01019,-0.09564 -0.02701,-0.188235 -0.07274,-0.274466 -0.0474,-0.09365 -0.10218,-0.184356 -0.182483,-0.253801 -0.05946,-0.0467 -0.121224,-0.09006 -0.200917,-0.08061 -0.07035,0.01842 -0.120907,0.06787 -0.162769,0.122002 -0.07605,0.112357 -0.136861,0.234367 -0.174151,0.365254 -0.02801,0.108276 -0.04906,0.218504 -0.04693,0.330896 0.01881,0.11879 -0.167847,0.148355 -0.186661,0.02956 z"
         id="path955"
         style="opacity:1;vector-effect:none;fill:#1a1a1a;fill-opacity:1;fill-rule:nonzero;stroke:none;stroke-width:0.19462417;stroke-linecap:round;stroke-linejoin:round;stroke-miterlimit:4;stroke-dasharray:none;stroke-dashoffset:0;stroke-opacity:1;paint-order:markers fill stroke" />
    </g>
  </g>
</svg>
