<?xml version="1.0" encoding="UTF-8" standalone="no"?>
<!-- Created with Inkscape (http://www.inkscape.org/) -->

<svg
   xmlns:dc="http://purl.org/dc/elements/1.1/"
   xmlns:cc="http://creativecommons.org/ns#"
   xmlns:rdf="http://www.w3.org/1999/02/22-rdf-syntax-ns#"
   xmlns:svg="http://www.w3.org/2000/svg"
   xmlns="http://www.w3.org/2000/svg"
   xmlns:sodipodi="http://sodipodi.sourceforge.net/DTD/sodipodi-0.dtd"
   xmlns:inkscape="http://www.inkscape.org/namespaces/inkscape"
   width="210mm"
   height="297mm"
   viewBox="0 0 210 297"
   version="1.1"
   id="svg8"
   inkscape:version="0.92.5 (2060ec1f9f, 2020-04-08)"
   sodipodi:docname="x.svg">
  <defs
     id="defs2" />
  <sodipodi:namedview
     id="base"
     pagecolor="#ffffff"
     bordercolor="#666666"
     borderopacity="1.0"
     inkscape:pageopacity="0.0"
     inkscape:pageshadow="2"
     inkscape:zoom="1.4"
     inkscape:cx="345.6527"
     inkscape:cy="955.61575"
     inkscape:document-units="mm"
     inkscape:current-layer="layer1"
     showgrid="false"
     inkscape:window-width="1920"
     inkscape:window-height="1017"
     inkscape:window-x="-8"
     inkscape:window-y="-8"
     inkscape:window-maximized="1" />
  <metadata
     id="metadata5">
    <rdf:RDF>
      <cc:Work
         rdf:about="">
        <dc:format>image/svg+xml</dc:format>
        <dc:type
           rdf:resource="http://purl.org/dc/dcmitype/StillImage" />
        <dc:title></dc:title>
      </cc:Work>
    </rdf:RDF>
  </metadata>
  <g
     inkscape:label="Layer 1"
     inkscape:groupmode="layer"
     id="layer1">
    <path
       style="opacity:1;vector-effect:none;fill:#ff0000;fill-opacity:1;fill-rule:nonzero;stroke:none;stroke-width:1;stroke-linecap:round;stroke-linejoin:round;stroke-miterlimit:4;stroke-dasharray:none;stroke-dashoffset:0;stroke-opacity:1;paint-order:markers fill stroke"
       id="path823"
       d="m 36.219066,37.300013 c 0.687917,0.211175 1.302155,0.582121 1.913157,0.952035 0.773084,0.512902 1.511094,1.075007 2.232988,1.656958 0.598731,0.50781 1.211355,0.999305 1.801654,1.516944 0.257082,0.232375 0.138798,0.124714 0.355177,0.322632 0.758208,0.683088 -0.315164,1.874499 -1.073373,1.191409 v 0 c -0.206129,-0.188685 -0.09443,-0.08691 -0.335348,-0.305062 -0.575252,-0.506606 -1.175518,-0.984068 -1.75903,-1.481082 -0.675883,-0.54501 -1.366567,-1.071743 -2.089676,-1.553155 -0.511472,-0.308948 -1.023062,-0.626054 -1.601251,-0.796425 -0.957302,-0.353644 -0.4016,-1.857901 0.555702,-1.504254 z"
       inkscape:connector-curvature="0"
       inkscape:export-filename="../Assets/Debug/x.png"
       inkscape:export-xdpi="96"
       inkscape:export-ydpi="96" />
    <path
       style="opacity:1;vector-effect:none;fill:#ff0000;fill-opacity:1;fill-rule:nonzero;stroke:none;stroke-width:1;stroke-linecap:round;stroke-linejoin:round;stroke-miterlimit:4;stroke-dasharray:none;stroke-dashoffset:0;stroke-opacity:1;paint-order:markers fill stroke"
       id="path825"
       d="m 42.088768,37.082663 c -0.405302,0.533657 -0.793353,1.078326 -1.165273,1.635755 -0.462772,0.675116 -0.880073,1.379217 -1.305933,2.077707 -0.379013,0.63315 -0.7528,1.269206 -1.137832,1.898734 -0.206497,0.340805 -0.104932,0.172377 -0.304753,0.505257 -0.297632,0.976169 -1.831536,0.508487 -1.533903,-0.467683 v 0 c 0.199818,-0.314894 0.09694,-0.145637 0.306009,-0.509357 0.393049,-0.622898 0.765445,-1.257488 1.136327,-1.893816 0.438589,-0.705403 0.846445,-1.430214 1.317731,-2.114847 0.373086,-0.575857 0.750305,-1.149731 1.182074,-1.683922 0.351401,-0.958127 1.856954,-0.405955 1.505553,0.552172 z"
       inkscape:connector-curvature="0"
       inkscape:export-filename="../Assets/Debug/x.png"
       inkscape:export-xdpi="96"
       inkscape:export-ydpi="96" />
    <path
       style="opacity:1;vector-effect:none;fill:#ff0000;fill-opacity:1;fill-rule:nonzero;stroke:none;stroke-width:1;stroke-linecap:round;stroke-linejoin:round;stroke-miterlimit:4;stroke-dasharray:none;stroke-dashoffset:0;stroke-opacity:1;paint-order:markers fill stroke"
       id="path835"
       d="m 59.463423,38.197102 c -0.434819,-0.145318 -0.880316,-0.137092 -1.330478,-0.105318 -0.40558,0.03791 -0.718624,0.190529 -1.026411,0.443402 0.07324,-0.09225 -0.308129,0.334902 -0.216136,0.266806 0.07532,-0.05575 0.11539,-0.150585 0.190204,-0.207018 0.04537,-0.03422 -0.06882,0.0906 -0.09938,0.138509 -0.08304,0.130197 -0.101351,0.184947 -0.165243,0.326811 -0.144952,0.327848 -0.157363,0.670997 -0.103999,1.01968 0.06374,0.28982 0.241577,0.488421 0.483441,0.644809 0.249796,0.139115 0.538194,0.211343 0.823624,0.170606 0.27373,-0.02823 0.519237,-0.168572 0.754139,-0.305541 0.313447,-0.191884 0.553175,-0.451393 0.782106,-0.733417 -0.396084,0.493662 0.03264,-0.08677 0.08379,-0.21998 0.04996,-0.130128 0.04975,-0.164648 0.07197,-0.29527 0.01913,-0.330438 -0.135432,-0.610719 -0.346472,-0.85195 -0.255969,-0.250481 -0.593799,-0.360678 -0.930804,-0.453824 -0.151744,-0.02672 -0.297955,-0.02884 -0.449408,-0.0065 -1.015296,-0.103283 -0.853004,-1.698665 0.162293,-1.595385 v 0 c 0.290472,0.0065 0.576598,0.01868 0.857694,0.103195 0.576265,0.181438 1.125654,0.425929 1.547484,0.874538 0.437973,0.517991 0.74335,1.103429 0.757336,1.79728 -0.04588,0.796544 -0.332883,1.419617 -0.893712,2.00128 -0.35746,0.374578 -0.767072,0.697523 -1.231771,0.930203 -0.430834,0.1973 -0.874614,0.35778 -1.356889,0.347411 -0.560581,-0.02671 -1.098346,-0.146312 -1.572257,-0.464066 -0.510741,-0.37152 -0.902097,-0.83149 -1.069745,-1.454205 -0.120653,-0.579874 -0.147608,-1.174573 0.04495,-1.74438 0.251058,-0.715465 0.651026,-1.364361 1.302467,-1.786852 0.532858,-0.323808 1.106514,-0.512366 1.733302,-0.54428 0.59386,-0.02236 1.183756,0.01527 1.753605,0.199189 0.957302,0.353644 0.4016,1.857901 -0.555702,1.504254 z"
       inkscape:connector-curvature="0"
       inkscape:export-filename="../Assets/Debug\o.png"
       inkscape:export-xdpi="96"
       inkscape:export-ydpi="96" />
    <g
       id="g905"
       inkscape:export-filename="../Assets/Debug\plus.png"
       inkscape:export-xdpi="96"
       inkscape:export-ydpi="96">
      <path
         inkscape:connector-curvature="0"
         d="m 72.152901,36.681148 c 0,0.514014 0,1.028028 0,1.542042 0,0.556852 0,1.113702 0,1.670555 0.0016,0.372843 0.003,0.745241 -0.01217,1.117782 0.100163,1.015609 -1.495714,1.172999 -1.595874,0.15739 v 0 c 0.03989,-0.34036 0.02053,-0.682016 0.02416,-1.024313 0,-0.55685 0,-1.113702 0,-1.670552 0,-0.514014 0,-1.028028 0,-1.542042 -0.159647,-1.007973 1.424229,-1.258835 1.583875,-0.250862 z"
         id="path847"
         style="opacity:1;vector-effect:none;fill:#ff0000;fill-opacity:1;fill-rule:nonzero;stroke:none;stroke-width:1;stroke-linecap:round;stroke-linejoin:round;stroke-miterlimit:4;stroke-dasharray:none;stroke-dashoffset:0;stroke-opacity:1;paint-order:markers fill stroke" />
      <path
         inkscape:connector-curvature="0"
         d="m 69.0901,38.264975 c 0.527965,-0.07025 1.059085,-0.111516 1.590384,-0.146116 0.584666,0.0082 1.167738,0.05765 1.751433,0.08934 0.545555,0.03652 1.093552,0.02117 1.637186,0.08006 0.338304,0.04548 0.175982,0.02093 0.487143,0.07248 0.987737,0.256646 0.584457,1.808726 -0.403281,1.55208 v 0 c -0.259638,-0.03866 -0.123375,-0.02021 -0.408929,-0.05423 -0.52733,-0.04129 -1.057783,-0.03125 -1.585489,-0.07023 -0.529378,-0.03024 -1.05913,-0.07837 -1.589675,-0.06975 -0.499173,0.03587 -0.998225,0.07794 -1.4937,0.149934 -1.020492,-0.0095 -1.005565,-1.613045 0.01492,-1.603547 z"
         id="path849"
         style="opacity:1;vector-effect:none;fill:#ff0000;fill-opacity:1;fill-rule:nonzero;stroke:none;stroke-width:1;stroke-linecap:round;stroke-linejoin:round;stroke-miterlimit:4;stroke-dasharray:none;stroke-dashoffset:0;stroke-opacity:1;paint-order:markers fill stroke" />
    </g>
    <path
       style="opacity:1;vector-effect:none;fill:#ff0000;fill-opacity:1;fill-rule:nonzero;stroke:none;stroke-width:1;stroke-linecap:round;stroke-linejoin:round;stroke-miterlimit:4;stroke-dasharray:none;stroke-dashoffset:0;stroke-opacity:1;paint-order:markers fill stroke"
       id="path855"
       d="m 85.658321,35.592268 c 0.536149,-0.09497 1.076145,-0.08832 1.617726,-0.06961 0.544767,-0.02307 1.088493,-0.06502 1.632964,-0.09426 0.553209,-0.05998 1.066046,0.04407 1.514694,0.373036 0.346938,0.32679 0.453324,0.77597 0.534842,1.227148 0.07355,0.47385 0.09801,0.953347 0.119814,1.431796 0.02114,0.514175 0.02955,1.02875 0.03663,1.543272 0.03539,0.786598 -0.06638,1.087215 -0.536625,1.712354 -0.356814,0.29519 -0.787278,0.317352 -1.227937,0.323641 -0.430119,-1.3e-4 -0.860221,-0.0056 -1.290325,-0.0088 -0.496803,-0.0036 -0.993616,-0.0053 -1.490427,-0.0067 -0.55662,-0.0092 -1.035986,-0.15413 -1.465786,-0.507913 -0.321151,-0.335378 -0.506992,-0.771856 -0.685919,-1.194498 -0.182086,-0.454547 -0.263464,-0.93793 -0.328409,-1.420532 -0.061,-0.520253 -0.112453,-1.041424 -0.05584,-1.563532 0.09765,-0.61678 0.563078,-1.010107 1.054134,-1.333886 0.417902,-0.244824 0.885452,-0.377293 1.364329,-0.427141 0.680154,0.01656 0.654124,1.085326 -0.02604,1.068764 v 0 c -0.336079,0.05292 -0.665355,0.157458 -0.94701,0.353274 -0.07771,0.0587 -0.197069,0.146714 -0.268361,0.210076 -0.02734,0.02429 -0.0874,0.113859 -0.07609,0.07907 0.111278,-0.342146 0.110937,-0.129524 -0.03228,0.02127 -0.108291,0.431033 -0.006,0.879594 0.02003,1.316279 0.04867,0.407677 0.105305,0.817636 0.245412,1.205796 0.118846,0.300622 0.252878,0.604504 0.431681,0.873262 0.245679,0.235469 0.581147,0.244584 0.906645,0.259377 0.498218,0.0016 0.996437,0.0034 1.494644,0.0072 0.420685,0.0033 0.84142,0.0099 1.262111,0.0054 0.183882,-0.0069 0.405455,0.01241 0.527192,-0.153194 -0.04193,0.06608 -0.09048,0.128405 -0.125798,0.19825 -0.01619,0.03203 0.04814,-0.05362 0.06784,-0.08362 0.147204,-0.224179 0.136168,-0.498671 0.128752,-0.755761 -0.0062,-0.505923 -0.0136,-1.011886 -0.03195,-1.517544 -0.01781,-0.443471 -0.03737,-0.887619 -0.09421,-1.32815 -0.03494,-0.235297 -0.0649,-0.481476 -0.173839,-0.696204 -0.234956,-0.232217 -0.646359,-0.148069 -0.938052,-0.146275 -0.569155,0.03199 -1.137888,0.08132 -1.708149,0.0855 -0.491596,-0.01389 -0.980507,-0.006 -1.466358,0.08181 -0.680329,-0.0063 -0.670378,-1.075365 0.0099,-1.069031 z"
       inkscape:connector-curvature="0"
       inkscape:export-filename="../Assets/Debug\square.png"
       inkscape:export-xdpi="96"
       inkscape:export-ydpi="96" />
    <path
       style="opacity:1;vector-effect:none;fill:#ff0000;fill-opacity:1;fill-rule:nonzero;stroke:none;stroke-width:1;stroke-linecap:round;stroke-linejoin:round;stroke-miterlimit:4;stroke-dasharray:none;stroke-dashoffset:0;stroke-opacity:1;paint-order:markers fill stroke"
       id="path857"
       d="m 95.210579,41.2702 c 0.247808,-0.485648 0.428876,-0.997252 0.604684,-1.511858 0.184597,-0.541631 0.34287,-1.092214 0.499578,-1.642518 0.152334,-0.532273 0.329197,-1.056148 0.508545,-1.579665 0.174186,-0.452247 0.315563,-0.948656 0.725382,-1.255999 0.07814,-0.05861 0.186118,-0.05937 0.279177,-0.08906 0.499568,-0.0033 0.821047,0.306853 1.072462,0.703191 0.223875,0.385752 0.39092,0.802571 0.545738,1.219983 0.186502,0.480356 0.373594,0.960353 0.561575,1.440127 0.17583,0.496136 0.38581,0.979053 0.55417,1.477822 0.14536,0.419344 0.33133,0.823227 0.47917,1.241237 0.18142,0.638845 -0.10677,1.18708 -0.73695,1.423734 -0.43311,0.09809 -0.880592,0.09761 -1.322431,0.107317 -0.454821,-0.03703 -0.906713,-0.100605 -1.36136,-0.140705 -0.488188,-0.04727 -0.979826,-0.03783 -1.466649,-0.096 -0.256897,-0.02408 -0.504484,-0.105424 -0.76286,-0.104561 -0.670039,-0.118049 -0.484545,-1.170911 0.185494,-1.052865 v 0 c 0.270944,0.0258 0.53661,0.077 0.806323,0.113152 0.482055,0.04751 0.968335,0.0406 1.45038,0.09257 0.420671,0.0396 0.83942,0.100849 1.261221,0.125275 0.332134,-0.0091 0.676905,-2.64e-4 0.998462,-0.09214 -0.279936,0.345978 -0.009,0.235006 -0.0286,0.05826 -0.125013,-0.424482 -0.342781,-0.819783 -0.479287,-1.241497 -0.155104,-0.485542 -0.366567,-0.949333 -0.532128,-1.431232 -0.194193,-0.486486 -0.377954,-0.977 -0.57286,-1.463264 -0.129854,-0.369076 -0.276934,-0.735894 -0.465399,-1.078977 -0.107884,-0.217804 -0.324141,-0.26308 -0.04702,-0.241474 0.150355,-0.04626 0.108273,-0.01707 0.244674,-0.239853 0.01611,-0.02633 -0.05413,0.03348 -0.07127,0.05916 -0.117062,0.175348 -0.148619,0.399087 -0.254453,0.580404 -0.167222,0.512275 -0.355451,1.01637 -0.504655,1.534689 -0.154705,0.56997 -0.326261,1.13579 -0.504722,1.698593 -0.188479,0.529971 -0.339492,1.076894 -0.613585,1.572226 -0.118411,0.669972 -1.171172,0.483909 -1.052763,-0.186066 z"
       inkscape:connector-curvature="0"
       inkscape:export-filename="../Assets/Debug\triangle.png"
       inkscape:export-xdpi="96"
       inkscape:export-ydpi="96" />
    <g
       id="g911"
       inkscape:export-filename="../Assets/Debug\eyes.png"
       inkscape:export-xdpi="96"
       inkscape:export-ydpi="96">
      <path
         inkscape:connector-curvature="0"
         d="m 113.77936,34.660668 c -0.30675,-0.05349 -0.6122,-0.05557 -0.91416,0.02056 -0.29388,0.08888 -0.52526,0.256608 -0.74617,0.462536 -0.0983,0.101775 -0.2206,0.311804 -0.32795,0.589135 -0.10994,0.315317 -0.15543,0.646993 -0.19359,0.977183 -0.0284,0.309517 0.0231,0.614439 0.075,0.918133 0.0627,0.336508 0.17472,0.658701 0.30345,0.974675 0.12962,0.279897 0.27493,0.549693 0.4842,0.777787 0.19235,0.187511 0.42954,0.291735 0.69028,0.338397 0.23755,0.05251 0.44162,-0.02727 0.65564,-0.115808 0.24858,-0.127653 0.48389,-0.292491 0.66922,-0.50269 0.22887,-0.241477 0.17748,-0.160779 0.38532,-0.51363 0.14983,-0.272915 0.2187,-0.576509 0.2747,-0.87984 0.0545,-0.298238 0.0428,-0.604396 0.0109,-0.904507 -0.0412,-0.338402 -0.14742,-0.664033 -0.2651,-0.98248 -0.13543,-0.327681 -0.32536,-0.633048 -0.5615,-0.897332 -0.15307,-0.174067 -0.3172,-0.376624 -0.56035,-0.409969 -0.19353,-0.02347 -0.38966,0.02855 -0.55816,0.123333 -0.2034,0.101819 -0.39863,0.232145 -0.56711,0.385902 -0.0831,0.106805 -0.0816,0.09889 0.023,-0.0074 -0.17687,0.447394 -0.87988,0.169474 -0.70301,-0.277921 v 0 c 0.27588,-0.334423 0.14684,-0.208344 0.36333,-0.401143 0.22796,-0.169203 0.46229,-0.332933 0.72758,-0.439123 0.31286,-0.114007 0.63509,-0.178057 0.9659,-0.09659 0.35058,0.111821 0.63156,0.314844 0.86023,0.605713 0.28569,0.322012 0.52314,0.686261 0.69008,1.084154 0.1385,0.362416 0.26099,0.73437 0.316,1.119654 0.0491,0.357804 0.065,0.726537 0.0141,1.084852 -0.06,0.370197 -0.13628,0.740159 -0.2985,1.081207 -0.18942,0.369789 -0.43713,0.704545 -0.74698,0.984062 -0.27004,0.241152 -0.56704,0.455266 -0.9066,0.587854 -0.32815,0.11971 -0.6637,0.171405 -1.00993,0.09449 -0.38367,-0.08997 -0.73407,-0.256344 -1.0156,-0.539043 -0.25682,-0.283739 -0.45028,-0.606026 -0.60962,-0.953797 -0.14696,-0.357375 -0.27859,-0.719936 -0.35446,-1.100198 -0.0619,-0.360064 -0.12777,-0.719553 -0.10615,-1.087186 0.0387,-0.378193 0.0866,-0.757272 0.19762,-1.122246 0.15111,-0.453171 0.36497,-0.861076 0.74259,-1.173105 0.31171,-0.25469 0.65508,-0.449638 1.05131,-0.540453 0.37485,-0.06471 0.75011,-0.06704 1.12571,7.93e-4 0.46706,0.115298 0.28589,0.84922 -0.18118,0.73392 z"
         id="path883"
         style="opacity:1;vector-effect:none;fill:#ff0000;fill-opacity:1;fill-rule:nonzero;stroke:none;stroke-width:1;stroke-linecap:round;stroke-linejoin:round;stroke-miterlimit:4;stroke-dasharray:none;stroke-dashoffset:0;stroke-opacity:1;paint-order:markers fill stroke" />
      <path
         inkscape:connector-curvature="0"
         d="m 112.78161,35.596131 c -0.14928,0.316571 -0.21816,0.652873 -0.25806,0.997781 0.003,0.208944 -0.054,0.509545 0.11756,0.671809 0.0665,-0.0082 0.0967,-0.114681 0.12126,-0.169014 -0.0331,0.03307 -0.0577,0.07773 -0.0993,0.0992 -0.0261,0.01347 0.0345,-0.04762 0.0489,-0.07317 0.0719,-0.127418 0.10365,-0.26126 0.12181,-0.404577 0.0302,-0.210198 -0.0163,-0.395076 -0.11142,-0.579115 0.004,-0.05173 -0.20422,-0.220924 -0.11633,-0.08393 10e-4,-0.03461 -0.12396,0.118343 -0.11383,0.111398 0.19334,-0.132578 0.10754,-0.122701 0.0238,0.03066 -0.0732,0.159724 -0.10497,0.332417 -0.0326,0.496766 0.0108,0.07263 0.13503,0.07949 0.0646,0.01125 0.0167,-0.106892 0.10144,-0.09725 -0.0837,0.03098 -0.0212,0.01469 0.0329,-0.03986 0.0467,-0.06164 0.0417,-0.06583 0.0452,-0.08383 0.0712,-0.151686 0.0494,-0.178183 0.0448,-0.357454 -0.0227,-0.528915 -0.014,-0.05798 -0.22809,-0.290227 -0.27062,-0.193101 -0.0715,0.330724 0.19376,-0.257127 0.0257,0.11479 -0.0425,0.153011 -0.0549,0.321736 0.0143,0.468471 0.0975,0.09023 -0.0163,-0.02709 -0.0439,-0.06095 -0.002,-0.01196 0.005,-0.04319 -0.005,-0.03588 -0.2387,0.181919 -0.0306,0.118107 -0.012,-0.149691 -0.0213,-0.08628 0.068,0.06194 0.11541,0.08512 0.0436,0.02135 0.13238,0.0366 0.18914,0.04736 0.23602,-0.253359 0.15101,-0.200768 0.12176,-0.05798 0.0166,0.480801 -0.73894,0.506825 -0.7555,0.02604 v 0 c 0.0337,-0.283131 0.0734,-0.449046 0.31515,-0.653582 0.40205,-0.18624 0.6889,-2.6e-5 0.75817,0.419875 0.0202,0.404564 -0.12077,0.785583 -0.46661,1.028258 -0.35198,0.147135 -0.67227,0.06398 -0.87339,-0.273523 -0.13752,-0.290769 -0.17768,-0.594191 -0.11078,-0.911752 0.10833,-0.412588 0.38585,-0.773358 0.83826,-0.794289 0.37297,0.05425 0.65274,0.25651 0.83101,0.593645 0.12558,0.298921 0.17096,0.605412 0.10545,0.926992 -0.0917,0.386297 -0.30734,0.753393 -0.70678,0.883002 -0.35021,0.03941 -0.63272,-0.08363 -0.80972,-0.400606 -0.14562,-0.327147 -0.17439,-0.662009 -0.046,-1.002789 0.14369,-0.356262 0.38756,-0.66597 0.77902,-0.752306 0.36514,-0.02797 0.6263,0.124984 0.81254,0.440579 0.15293,0.287586 0.25237,0.583086 0.2218,0.914775 -0.0296,0.428631 -0.14669,0.790901 -0.46042,1.10262 -0.33517,0.250859 -0.70825,0.30299 -1.04568,0.01452 -0.26717,-0.330268 -0.33766,-0.705366 -0.31162,-1.125976 0.0391,-0.406226 0.10046,-0.806527 0.26769,-1.182995 0.0837,-0.473744 0.82814,-0.342177 0.74442,0.131567 z"
         id="path885"
         style="opacity:1;vector-effect:none;fill:#ff0000;fill-opacity:1;fill-rule:nonzero;stroke:none;stroke-width:1;stroke-linecap:round;stroke-linejoin:round;stroke-miterlimit:4;stroke-dasharray:none;stroke-dashoffset:0;stroke-opacity:1;paint-order:markers fill stroke" />
      <path
         inkscape:connector-curvature="0"
         d="m 120.35356,34.257451 c -0.32188,-0.09475 -0.6498,-0.144352 -0.9849,-0.123897 -0.30561,0.0021 -0.54638,0.145349 -0.77945,0.326483 -0.26188,0.212868 -0.3476,0.346776 -0.51588,0.6003 -0.21862,0.335684 -0.34538,0.711247 -0.44453,1.095978 -0.10391,0.404095 -0.10018,0.822772 -0.0691,1.235604 0.0427,0.347644 0.13429,0.686459 0.28238,1.003617 0.12154,0.272998 0.29458,0.521343 0.5124,0.725835 0.19144,0.151741 0.41325,0.25183 0.65919,0.243157 0.29315,-0.04437 0.53652,-0.208119 0.7535,-0.400823 0.047,-0.03811 0.0956,-0.07428 0.14092,-0.114329 0.12326,-0.108894 0.23339,-0.230854 0.33756,-0.357576 0.12285,-0.149445 0.15624,-0.177573 0.0819,-0.109019 0.20611,-0.309713 0.34924,-0.657998 0.47306,-1.007481 0.12073,-0.349744 0.13852,-0.724217 0.13135,-1.091215 -0.007,-0.355685 -0.0822,-0.700572 -0.17508,-1.041961 -0.0917,-0.308594 -0.23347,-0.594021 -0.41068,-0.861555 -0.13986,-0.192307 -0.31972,-0.302442 -0.55625,-0.315949 -0.12364,-0.01408 -0.24296,0.0158 -0.36377,0.03657 -0.48107,-0.0037 -0.47524,-0.759637 0.006,-0.755931 v 0 c 0.1805,-0.02238 0.36117,-0.04321 0.54272,-0.01365 0.40147,0.07805 0.73512,0.258672 0.97804,0.597807 0.21563,0.321443 0.39157,0.663613 0.50699,1.034429 0.10732,0.386765 0.20218,0.776417 0.21503,1.179996 0.0215,0.439277 0.002,0.890932 -0.12283,1.314789 -0.13456,0.414666 -0.30402,0.818309 -0.51968,1.197713 -0.28443,0.365265 -0.57469,0.723874 -0.95425,0.996466 -0.35482,0.258315 -0.74067,0.459661 -1.19156,0.456896 -0.39129,-0.03866 -0.74684,-0.174541 -1.04721,-0.435171 -0.26934,-0.25922 -0.49893,-0.560128 -0.65281,-0.902727 -0.18464,-0.383159 -0.30505,-0.789818 -0.36374,-1.211802 -0.0421,-0.47765 -0.0567,-0.96326 0.0508,-1.434208 0.10533,-0.44854 0.23691,-0.89036 0.47737,-1.287868 0.24644,-0.418893 0.55855,-0.800367 0.95953,-1.080529 0.34555,-0.225904 0.71488,-0.376819 1.13495,-0.375891 0.39788,-0.0024 0.78884,0.04963 1.1702,0.166836 0.45128,0.166711 0.18932,0.875824 -0.26196,0.709115 z"
         id="path897"
         style="opacity:1;vector-effect:none;fill:#ff0000;fill-opacity:1;fill-rule:nonzero;stroke:none;stroke-width:1;stroke-linecap:round;stroke-linejoin:round;stroke-miterlimit:4;stroke-dasharray:none;stroke-dashoffset:0;stroke-opacity:1;paint-order:markers fill stroke" />
      <path
         inkscape:connector-curvature="0"
         d="m 118.80236,35.449242 c -0.19325,0.249508 -0.37198,0.504677 -0.49311,0.797333 -0.0289,0.109918 -0.12262,0.303816 -0.004,0.394353 0.0419,-0.01214 0.10936,-0.04817 0.15257,-0.08729 0.11871,-0.03471 0.14898,-0.124243 0.21373,-0.212214 0.1203,-0.178247 0.16874,-0.372009 0.1588,-0.58379 -0.0123,-0.125693 -0.0797,-0.197249 -0.19859,-0.226253 -0.11719,0.01492 -0.12687,0.04058 -0.14758,0.148521 0.0323,-0.03798 0.0562,-0.08507 0.0968,-0.113943 0.0225,-0.01598 -0.0278,0.04779 -0.0391,0.07296 -0.0573,0.127542 -0.0683,0.254783 -0.0645,0.393009 -0.0335,0.09022 0.15433,0.221986 0.0734,0.143367 0.0368,-0.251737 -0.20735,0.181457 -0.0866,-0.03421 0.0722,-0.153289 0.0717,-0.311484 0.025,-0.471477 -0.0433,-0.100222 -0.0984,-0.110824 -0.18974,-0.09976 -0.0463,0.04855 -0.28007,0.316257 -0.0475,0.0723 -0.0837,0.112112 -0.12412,0.257185 -0.0972,0.395946 0.0195,0.05441 0.0344,-0.05966 0.0578,-0.09947 0.11516,-0.235077 8e-4,-0.02416 -0.0404,-0.0087 -0.001,5.29e-4 0.0603,-0.09186 0.095,-0.241655 0.0513,-0.05624 -0.0531,-0.168063 -0.0309,-0.114289 -0.0437,0.222607 0.24453,-0.170725 0.11943,-0.0056 -0.11377,0.467436 -0.84828,0.288665 -0.73451,-0.178774 v 0 c 0.17409,-0.384977 0.49147,-0.630875 0.91508,-0.509532 0.32567,0.155411 0.50417,0.426992 0.48679,0.796827 -0.0589,0.410787 -0.2413,0.796891 -0.62852,0.995365 -0.39828,0.132781 -0.78078,0.04586 -0.94985,-0.375007 -0.0788,-0.312777 -0.0554,-0.629674 0.0987,-0.918504 0.24648,-0.304858 0.47969,-0.561356 0.89974,-0.551182 0.3383,0.04832 0.59535,0.220657 0.73883,0.539221 0.0994,0.297423 0.13187,0.605911 0.0263,0.908171 -0.14221,0.376259 -0.40442,0.669306 -0.82713,0.636884 -0.36024,-0.100692 -0.57234,-0.350578 -0.64274,-0.72127 -0.0378,-0.432718 0.0386,-0.798536 0.32629,-1.139563 0.25759,-0.229685 0.55149,-0.312007 0.88756,-0.204436 0.32416,0.146722 0.5551,0.384752 0.61624,0.747194 0.0321,0.343625 -0.004,0.670068 -0.17649,0.976892 -0.18596,0.320461 -0.4343,0.592717 -0.78593,0.724186 -0.3031,0.09197 -0.5936,0.09414 -0.84457,-0.128984 -0.25932,-0.297741 -0.32332,-0.638501 -0.2016,-1.017474 0.11422,-0.342858 0.28123,-0.671576 0.52632,-0.940679 0.15365,-0.455887 0.87001,-0.214447 0.71636,0.241443 z"
         id="path899"
         style="opacity:1;vector-effect:none;fill:#ff0000;fill-opacity:1;fill-rule:nonzero;stroke:none;stroke-width:1;stroke-linecap:round;stroke-linejoin:round;stroke-miterlimit:4;stroke-dasharray:none;stroke-dashoffset:0;stroke-opacity:1;paint-order:markers fill stroke" />
    </g>
  </g>
</svg>
